<?xml version="1.0" standalone="no"?>
<!DOCTYPE svg PUBLIC "-//W3C//DTD SVG 1.1//EN" "http://www.w3.org/Graphics/SVG/1.1/DTD/svg11.dtd" >
<svg xmlns="http://www.w3.org/2000/svg">
<metadata>Generated by IcoMoon</metadata>
<defs>
<font id="icomoon" horiz-adv-x="1024">
<font-face units-per-em="1024" ascent="960" descent="-64" />
<missing-glyph horiz-adv-x="1024" />
<glyph unicode="&#x20;" horiz-adv-x="512" d="" />
<glyph unicode="&#xe900;" glyph-name="arrowGoDown" d="M768.030 904.1c-244.961 141.37-557.96 57.45-699.33-187.39s-57.45-557.96 187.39-699.33c244.781-141.31 557.9-57.45 699.27 187.39 141.31 244.841 57.39 557.96-187.33 699.33zM692.954 411.351l-144.799-144.799c-4.993-5.053-10.768-8.783-16.904-11.31-6.196-2.466-12.753-3.79-19.25-3.79-13.174 0-26.229 5.053-36.215 15.039l-144.799 144.859c-20.032 20.032-20.032 52.517 0 72.49 19.972 19.972 52.397 19.972 72.369 0l57.45-57.39v213.559c0 28.274 22.86 51.194 51.194 51.194 28.214 0 51.194-22.92 51.194-51.194v-213.559l57.39 57.39c19.972 20.032 52.397 20.032 72.369-0.060 19.972-19.972 19.972-52.397 0-72.43z" />
<glyph unicode="&#xe901;" glyph-name="arrowIn" horiz-adv-x="631" d="M119.442 972.8l-119.442-119.442 392.508-392.558-392.508-392.508 119.442-119.492 512 512z" />
<glyph unicode="&#xe902;" glyph-name="menu" horiz-adv-x="1716" d="M0 972.8h354.616v-354.616h-354.616v354.616zM680.66 972.8h354.616v-354.616h-354.616v354.616zM1361.39 972.8h354.616v-354.616h-354.616v354.616zM0 303.485h354.616v-354.685h-354.616v354.685zM680.66 303.485h354.616v-354.685h-354.616v354.685zM1361.39 303.485h354.616v-354.685h-354.616v354.685z" />
<glyph unicode="&#xe903;" glyph-name="search" horiz-adv-x="989" d="M973.61 40.077l-243.763 253.47c62.648 74.494 96.954 168.199 96.954 265.769 0.041 228.008-185.393 413.483-413.36 413.483s-413.442-185.475-413.442-413.442c0-227.967 185.475-413.442 413.442-413.442 85.601 0 167.129 25.791 236.811 74.823l245.655-255.445c10.242-10.613 24.022-16.454 38.831-16.454 14.027 0 27.231 5.306 37.35 14.973 21.472 20.649 22.089 54.832 1.522 76.263zM413.442 864.946c168.528 0 305.588-137.101 305.588-305.588s-137.060-305.588-305.588-305.588-305.588 137.101-305.588 305.588 137.060 305.588 305.588 305.588z" />
<glyph unicode="&#xe904;" glyph-name="global" d="M894.879 121.453c80.207 90.413 129.081 209.249 129.081 339.367 0 135.34-52.9 258.482-138.968 350.13v0.040c-0.080 0.12-0.199 0.159-0.239 0.239-89.695 95.316-215.268 156.309-355.033 161.093l-0.040 0.040-9.966 0.239c-2.591 0.080-5.143 0.199-7.734 0.199-2.631 0-5.182-0.12-7.774-0.199l-9.926-0.239v-0.040c-139.765-4.784-265.378-65.776-355.073-161.093-0.040-0.080-0.159-0.12-0.239-0.239v-0.040c-86.107-91.649-138.968-214.79-138.968-350.13 0-130.118 48.834-248.994 129.081-339.367 0.080-0.199 0.080-0.359 0.199-0.558 0.359-0.399 0.797-0.638 1.156-0.997 90.134-100.738 219.454-165.677 363.804-170.58l0.040-0.080 9.926-0.279c2.591-0.080 5.143-0.159 7.774-0.159 2.591 0 5.143 0.080 7.734 0.199l9.966 0.319c144.509 4.903 273.989 70.002 364.083 170.979 0.239 0.239 0.638 0.399 0.837 0.718 0.159 0.080 0.159 0.239 0.279 0.439zM35.719 443.16h211.92c1.993-74.866 16.624-147.578 42.615-215.707-50.189-18.178-98.186-42.535-143.154-72.952-66.175 78.772-107.355 178.952-111.381 288.659zM156.707 778.181c43.931-28.543 90.692-51.465 139.486-68.527-29.859-72.514-46.402-150.688-48.555-231.214h-211.92c4.226 114.89 49.233 219.494 120.989 299.741zM988.242 478.44h-211.92c-2.113 80.526-18.696 158.701-48.515 231.214 48.754 17.062 95.515 39.984 139.446 68.527 71.756-80.247 116.723-184.852 120.989-299.741zM494.32 708.618c-51.027 1.435-101.176 9.049-149.572 22.643 35.798 73.43 86.347 139.685 149.572 194.858v-217.501zM494.32 673.298v-194.858h-211.362c2.153 76.779 18.258 151.206 47.040 220.251 53.1-15.348 108.192-23.879 164.322-25.394zM529.64 673.298c56.129 1.515 111.222 10.006 164.282 25.394 28.822-69.045 44.927-143.472 47.12-220.251h-211.402v194.858zM529.64 708.618v217.501c63.225-55.172 113.773-121.427 149.572-194.858-48.435-13.594-98.545-21.208-149.572-22.643zM713.416 742.024c-33.925 71.039-81.005 135.779-139.287 191.27 103.448-13.514 196.413-60.275 268.049-129.201-40.662-25.832-83.795-46.562-128.762-62.069zM310.545 742.024c-44.967 15.507-88.101 36.237-128.762 62.069 71.637 68.926 164.68 115.687 268.049 129.201-58.322-55.491-105.362-120.231-139.287-191.27zM282.958 443.16h211.362v-177.238c-58.402-1.555-115.567-10.644-170.58-27.227-24.836 64.581-38.788 133.506-40.781 204.465zM494.32 230.602v-235.121c-67.69 59.079-120.75 130.795-156.867 210.405 50.628 14.909 103.209 23.201 156.867 24.716zM529.64-4.519v235.121c53.658-1.475 106.199-9.807 156.827-24.716-36.077-79.609-89.137-151.326-156.827-210.405zM529.64 265.922v177.238h211.402c-2.033-70.959-15.986-139.885-40.821-204.425-55.013 16.544-112.219 25.633-170.58 27.188zM776.282 443.16h211.92c-4.066-109.667-45.206-209.887-111.342-288.659-45.007 30.417-93.044 54.774-143.233 72.952 26.071 68.128 40.622 140.801 42.655 215.707zM171.059 128.071c41.778 27.706 86.267 50.070 132.709 66.773 34.363-76.978 83.636-147.1 146.024-206.538-108.591 14.192-205.781 65.059-278.733 139.765zM574.129-11.694c62.388 59.398 111.7 129.52 146.024 206.538 46.482-16.703 90.931-39.027 132.709-66.773-72.952-74.706-170.182-125.573-278.733-139.765z" />
<glyph unicode="&#xe905;" glyph-name="cart" horiz-adv-x="1575" d="M1574.563 850.126c-13.47-24.994-27.438-49.838-39.86-75.131-4.191-8.481-8.98-11.624-20.703-11.624-390.174 0.2-780.297 0.2-1170.471 0-10.526 0-16.214 1.996-20.105 10.227-12.771 26.84-26.64 53.38-41.257 82.265h1292.397v-5.737zM376.405 670.778h1104.469c-8.531-17.211-16.313-33.475-24.545-49.589-7.084-13.769-10.127-32.776-23.198-39.511-13.919-7.084-37.566-2.794-56.972-2.794-311.151-0.1-622.302 0.050-933.453-0.349-15.066 0-22.649 3.043-27.788 14.567-11.474 25.692-24.994 50.736-38.513 77.676zM469.895 485.993h917.589c-15.116-29.683-29.334-58.568-44.949-87.104-1.646-2.993-10.975-4.64-16.812-4.64-83.113-0.299-166.227-0.2-249.44-0.2-180.245 0-360.64 0.15-540.935-0.349-14.867-0.050-21.152 3.592-26.042 14.318-11.823 25.642-25.543 50.736-39.411 77.975zM389.176 58.005c-0.15 64.206 54.827 111.749 114.792 108.955 50.636-2.544 106.062-47.194 103.168-114.792-2.245-52.682-48.84-105.912-114.643-103.218-55.974 2.295-103.667 50.886-103.318 109.055zM1065.756 58.005c-0.2 64.206 54.877 111.749 114.792 108.955 50.636-2.544 106.062-47.194 103.168-114.792-2.245-52.682-48.84-105.912-114.692-103.218-55.924 2.295-103.667 50.886-103.268 109.055zM1272.193 307.245c-255.776 0-511.501 0.2-767.227-0.449-17.561-0.050-24.545 4.939-30.98 16.712-118.085 216.264-236.768 432.379-354.903 648.643-0.499 0.898-1.596 0.798-3.193 0.050l-115.89 0.599 49.239-87.653c118.234-216.713 237.167-433.227 355.551-649.84 5.039-9.179 10.626-12.871 23.996-12.871 282.216 0.499 564.432 0.399 846.648 0.349h17.66v84.41h-20.903z" />
<glyph unicode="&#xe906;" glyph-name="share" horiz-adv-x="1016" d="M1015.699 125.213c-0.686-5.458-1.34-10.883-2.059-16.341-4.739-33.466-17.648-63.369-38.825-89.71-28.008-34.871-64.022-57.617-107.979-66.31-57.878-11.438-110.43 1.209-156.347 38.4-34.805 28.171-56.31 64.872-65.036 108.763-5.687 28.531-4.151 56.767 4.151 84.644 0.327 0.98 0.556 1.994 0.882 3.268-104.907 53.695-209.781 107.227-314.785 160.955-38.662-48.532-88.599-75.003-150.889-74.513-54.643 0.327-100.952 21.57-137.49 62.388-68.271 76.278-61.866 193.081 13.53 262.103 75.363 69.023 199.78 67.323 272.006-22.779 105.364 53.859 210.794 107.783 315.962 161.543-1.732 9.38-3.562 18.465-5.098 27.616-2.222 13.693-1.994 27.55-0.49 41.276 3.595 32.191 14.51 61.637 33.596 87.88 30.524 42.061 71.506 67.781 122.783 76.049 90.331 14.576 178.178-39.087 206.578-125.463 4.706-14.347 7.843-29.021 8.824-44.12 0.065-1.013 0.458-1.994 0.654-2.974v-23.498c-0.882-6.569-1.601-13.171-2.745-19.707-7.026-41.472-25.785-76.899-56.865-105.103-48.662-44.152-105.789-59.055-169.877-45.002-35.982 7.909-66.474 26.308-91.834 53.074-4.935 5.262-9.576 10.85-14.38 16.341-104.907-53.63-209.879-107.26-314.851-160.922 4.739-16.635 8.138-33.106 8.366-50.133 0.229-17.060-2.68-33.629-7.026-50.264 105.593-53.924 211.055-107.881 315.537-161.314 10.425 10.098 19.739 20.426 30.459 29.086 44.152 35.557 94.612 48.532 150.366 38.629 45.623-8.105 83.010-30.982 112.064-67.062 21.145-26.308 34.086-56.244 38.825-89.71 0.686-5.425 1.373-10.883 2.059-16.341v-20.753z" />
<glyph unicode="&#xe907;" glyph-name="line" horiz-adv-x="1074" d="M1063.020 623.624c-24.544 100.651-84.887 177.063-166.96 236.965-106.516 77.734-227.574 111.092-358.397 112.211-51.834 0.136-103.159-5.255-153.468-17.832-122.449-30.578-228.218-88.887-305.342-191.063-73.598-97.464-97.769-206.522-63.597-325.038 34.307-119.025 114.482-200.793 220.455-259.339 75.802-41.901 157.536-64.818 243.779-71.7 15.967-1.322 25.256-10.679 25.629-26.544 0.237-8.17 0.17-16.645-1.729-24.578-5.831-24.307-13.492-48.207-18.578-72.683-1.831-8.95-1.254-20.612 3.221-28.036 6.238-10.441 18.408-7.458 28.714-3.695 4.271 1.559 8.475 3.39 12.442 5.56 27.527 15.289 55.326 30.205 82.446 46.206 90.311 53.359 175.198 114.482 255.271 182.215 49.766 42.071 97.362 86.345 135.094 140.111 63.292 90.243 87.396 188.792 61.021 297.24zM333.887 412.424c-1.322-0.576-2.814-0.814-4.271-1.153-3.39-0.78-6.882-1.254-10.34-1.288-32.104-0.203-64.174-0.136-96.311-0.102-12.001 0.034-20.544 2.543-26.103 8.068-5.526 5.526-8.068 14.103-8.068 26.239 0 40.986 0.136 81.938 0.237 122.923 0.034 20.476 0.068 40.952 0.102 61.394 0.034 6.373-0.237 12.747 0.203 19.052 0 0.068 0 0.136 0 0.203 1.187 14.543 9.39 23.968 21.222 26.544 2.204 0.475 4.305 1.187 6.78 1.153 2.678-0.034 4.983-0.814 7.356-1.458 5.933-1.593 10.645-4.983 14.001-9.933 3.119-4.644 5.322-10.204 5.356-17.154 0.271-27.053 0.237-54.139 0.339-81.192s0.237-54.105 0.339-81.158v0c0-5.831 0-11.73 0-19.154 26.476 0 51.563 0.203 76.683-0.068 2.983-0.034 5.763-0.712 8.475-1.526 10.238-3.085 18.171-11.052 20.442-21.29 2.576-11.492-4.271-24.815-16.442-30.104zM431.554 437.815c0-13.56-7.017-22.815-19.391-26.849-12.001-3.831-23.222-0.068-30.036 10.543-3.695 5.763-5.797 13.628-5.797 20.51-0.203 67.767 0.102 135.5 0.542 203.268 0.136 19.289 10.882 30.375 27.9 30.002 16.171-0.305 26.103-11.526 26.205-30.104 0.136-34.341 0.034-68.649 0.034-102.99h0.542c0-34.782 0-69.598 0-104.38zM676.045 415.339c-0.61-0.475-1.458-0.678-2.102-1.085-1.966-1.288-3.899-2.576-6.373-3.39-0.915-0.339-1.831-0.203-2.746-0.441-11.323-2.644-22.442 2.305-32.307 15.594-32.646 44.105-65.123 88.277-97.735 132.382-0.983 1.322-2.407 2.814-4.271 4.746-0.915 0.949-1.763 1.797-3.085 3.187 0-19.832-0.034-36.579 0-53.258 0-8.102 0-16.238 0.034-24.341 0.102-16.204 0.305-32.409 0.102-48.579-0.068-7.594-2.271-13.56-5.458-18.476-4.78-7.39-12.272-11.865-22.34-11.797 0 0 0 0 0 0v0c-16.103 0.068-28.171 12.475-28.205 30.578-0.034 22.747 0.102 45.528 0.102 68.276 0 45.562 0 91.125 0.203 136.653 0.068 13.357 5.526 24.171 18.95 28.883 3.593 1.254 7.153 1.559 10.645 1.288 8.882-0.644 17.289-5.899 24.646-15.865 31.494-42.613 62.886-85.362 94.311-128.008 2.576-3.526 5.424-6.78 10.611-13.289v92.786c0 11.899-0.136 23.832 0 35.731 0 0 0 0 0 0.034 0.203 16.374 11.391 28.409 26.646 28.917 6.407 0.203 12.001-2.068 16.747-5.458 7.051-4.949 11.899-12.882 12.001-23.018 0.441-31.629 0.136-63.258 0.203-94.922 0-36.206 0.136-72.412 0.068-108.651 0-13.492-3.458-22.781-10.645-28.476zM884.872 537.483c-0.678-2.644-1.729-5.288-3.119-7.865-5.627-10.238-14.442-14.848-25.764-14.916-12.34-0.034-25.086 0-37.562 0s-24.68 0-37.494 0v-49.122c17.018 0 33.663-0.034 50.376-0.102 8.407 0 16.916 0.102 25.324-0.034 8.679-0.136 15.899-3.865 21.086-9.357 3.593-3.831 6.373-8.441 7.356-13.798 2.17-12.781-4.102-25.019-16.34-30.070-3.966-1.661-8.746-2.17-13.187-2.17-33.494-0.203-66.954-0.136-100.447-0.068-20.273 0.068-30.883 10.001-30.917 30.002v0 0c-0.17 68.784-0.068 137.568 0.203 206.353 0.068 17.967 9.458 29.154 27.358 29.663 35.29 1.051 70.649 1.119 105.939 0.17 4.441-0.102 8.407-1.017 11.865-2.509 0.61-0.271 0.915-0.78 1.492-1.085 2.712-1.424 5.288-3.017 7.255-5.221 4.746-5.288 7.153-12.577 6.848-20.747-0.644-15.018-12.102-25.798-29.561-26.171-24.646-0.509-49.257-0.136-74.547-0.136v-49.834c24.442 0 49.088 0.949 73.632-0.509 8.475-0.509 18.408-5.119 24.646-11.085 3.966-3.831 6.034-8.543 6.373-13.594 0.068-2.576-0.17-5.187-0.814-7.797z" />
<glyph unicode="&#xe908;" glyph-name="youtube" horiz-adv-x="866" d="M519.648 616.115c0.679-31.891 21.968-45.462 52.672-36.811 17.218 4.863 29.46 16.907 44.416 30.336 0-7.294-0.141-11.79 0.085-16.285 0.198-5.598-2.064-13.684 7.69-12.525 15.239 1.838 31.496-5.824 45.688 4.778 0.905 0.679 0.339 3.449 0.339 5.23 0 91.207-0.085 182.386 0.141 273.593 0.028 7.945-2.714 10.744-10.433 10.037-5.343-0.509-10.8-0.085-16.172-0.085-27.339 0-27.339 0-27.339-27.453 0-62.397 0.113-124.795-0.057-187.192-0.057-14.758-19.197-34.973-31.948-32.853-18.066 3.025-11.846 18.688-11.959 29.149-0.735 59.4-0.368 118.801-0.368 178.173 0 41.956 0.028 41.504-41.843 40.486-11.026-0.283-12.864-4.524-12.61-13.938 0.509-19.762 0.057-39.581 0.17-59.372 0.368-61.747 0.141-123.522 1.527-185.269zM190.867 625.671c-3.449-45.886-0.594-45.462 45.208-45.406 13.175 0.028 14.419 5.315 14.278 15.946-0.452 39.581 0.254 79.191-0.368 118.773-0.283 17.614 2.771 34.238 7.916 50.975 21.063 68.306 41.476 136.782 62.539 206.559-16.85 0-32.372-0.594-47.837 0.226-10.319 0.565-14.249-2.799-16.766-13.090-10.574-43.313-22.335-86.316-33.672-129.431-1.329-0.028-2.658-0.057-3.958-0.113-11.479 43.031-22.844 86.061-34.634 129.007-1.668 6.107-1.329 14.278-12.44 13.656-17.699-0.99-35.482-0.254-54.849-0.254 9.33-27.226 17.105-52.898 26.915-77.778 33.927-86.542 54.735-174.893 47.667-269.069zM853.743 439.412c-8.849 53.491-40.769 90.613-87.871 99.293-26.972 4.948-54.707 6.474-82.16 8.199-83.234 5.117-166.61 5.089-249.985 3.817-53.407 0-106.785 0.537-160.192-0.141-53.322-0.65-106.502-4.128-159.541-10.206-51.484-5.909-88.097-38.479-99.151-89.143-7.040-32.259-11.055-64.857-12.101-97.823-3.11-97.088-6.842-194.203 8.991-290.669 9.5-57.704 46.31-96.805 97.851-101.809 50.636-4.919 101.555-9.924 152.389-10.291 161.888-1.159 323.861-6.587 485.495 9.33 52.417 5.146 92.196 38.083 103.251 89.228 6.729 31.1 10.857 62.454 11.959 94.232 3.449 98.84 7.294 197.738-8.934 295.984zM207.152 404.835c-18.038 0.622-23.721-3.308-23.494-22.646 1.159-97.172 0.311-194.317 0.792-291.489 0.085-13.288-2.12-18.603-17.161-18.236-39.581 1.046-39.61 0.226-39.61 39.101v129.544c0 49.816-0.311 99.547 0.254 149.363 0.113 10.744-2.234 15.239-13.769 14.108-10.687-1.046-21.628 0.424-32.344-0.424-11.196-0.82-15.776 1.923-15.748 14.56 0 38.79-0.565 38.79 37.631 38.79 43.2 0 86.429-0.254 129.601 0.198 9.697 0.113 13.147-1.979 13.288-12.581 0.509-40.741 0.876-41.702-39.44-40.288zM383.685 72.605c-27.764 1.159-27.82 0.339-32.146 30.478-14.645-13.967-28.046-28.414-48.487-32.683-23.466-4.891-38.253 4.1-44.105 27.057-2.742 10.659-2.94 21.346-2.94 32.146-0.057 70.794 0.311 141.645-0.368 212.524-0.085 12.949 2.347 17.585 16.483 17.19 34.521-0.99 34.549-0.17 34.549-34.803 0-60.051-0.339-120.073 0.254-180.096 0.113-11.111-6.587-27.453 13.656-29.177 15.097-1.272 32.796 17.246 32.824 33.701 0.198 42.635 0.057 85.241 0.057 127.876 0 23.381 0.452 46.819-0.17 70.201-0.283 9.584 2.912 11.903 12.242 12.129 38.648 0.933 38.648 1.329 38.648-37.8 0-76.223-0.622-152.502 0.481-228.752 0.254-17.331-5.343-20.639-20.978-19.989zM598.839 113.572c-4.156-44.586-42.889-58.581-78.173-30.449-5.937 4.721-11.252 10.178-17.67 16.087-3.873-10.008 3.449-23.042-5.287-25.021-14.164-3.11-29.658-0.99-44.473 0.057-3.704 0.283-2.403 6.192-2.403 9.613-0.057 121.204 0.028 242.408-0.198 363.669-0.028 7.775 2.12 9.839 10.008 10.235 40.825 2.205 40.769 2.46 40.825-38.762 0.028-27.622 0.17-55.216 0.311-82.81 0-0.424 0.565-0.876 2.007-3.025 8.623 7.068 15.691 15.917 25.389 21.459 32.061 18.377 65.394 3.817 69.211-32.853 7.266-69.296 6.955-138.931 0.452-208.198zM701.553 71.842c-29.573 7.125-48.94 26.802-52.587 56.828-7.068 58.383-7.662 117.274 0.17 175.544 5.032 37.065 36.556 59.203 74.809 58.298 38.479-0.905 67.317-26.067 72.802-63.698 3.958-26.831 1.781-53.831 2.516-80.774 0.226-8.001-2.94-10.489-10.517-10.235-13.797 0.396-27.622 0.113-41.391 0.113h-7.209c-46.536 0-46.565 0-45.406-47.187 0.198-8.34 0.057-17.020 2.177-24.965 3.562-13.316 11.761-21.798 27.198-20.78 14.843 0.99 20.582 9.613 22.279 23.155 4.071 32.485 4.241 31.807 38.253 32.174 12.383 0.141 14.73-3.958 14.758-15.324 0.226-62.058-40.034-97.003-97.851-83.149zM321.627 642.691c4.071-38.366 34.634-64.829 72.745-66.242 40.062-1.442 69.692 22.109 78.4 61.634 6.446 29.121 1.272 58.552 2.969 79.446 0 32.909 1.046 57.563-0.254 82.075-2.375 45.349-31.043 75.205-71.869 76.76-45.066 1.696-77.382-22.646-81.99-65.168-6.079-56.036-5.909-112.44 0-168.504zM374.384 727.621c0 23.41-0.226 46.791 0.085 70.172 0.226 15.013 5.146 27.679 21.968 30.223 12.525 1.894 24.314-9.556 24.767-27.537l0.085-145.716c-0.311-13.74-5.796-27.848-24.032-28.131-13.797-0.226-22.448 11.224-22.844 30.817-0.452 23.381-0.113 46.791-0.113 70.172h0.085zM520.694 316.059c-10.206-2.912-19.989-6.898-19.48-21.572 0.933-25.756 0.283-51.597 0.283-77.382 0-25.841 0.085-51.682-0.085-77.467-0.028-7.436 0.226-13.769 7.718-18.49 9.273-5.852 18.943-9.132 28.697-4.1 11.366 5.909 13.684 17.614 13.712 29.375 0.141 46.225-0.028 92.479 0.113 138.648 0.028 6.814-1.527 13.090-4.128 19.169-5.202 12.157-15.578 14.984-26.831 11.818zM721.061 248.601c6.559 0 13.147 0.057 19.678-0.057 4.863-0.085 8.227 1.329 8.199 6.87-0.085 15.465 1.894 31.213-3.873 46.056-3.675 9.358-10.348 15.38-21.742 15.55-11.479 0.17-19.169-4.071-24.258-14.391-4.184-8.453-3.534-17.472-4.213-26.265-2.205-27.764-1.866-27.764 26.209-27.764z" />
<glyph unicode="&#xe909;" glyph-name="file" horiz-adv-x="768" d="M767.747 765.52c-0.065 6.167-2.414 12.203-6.95 16.738l-183.527 183.527c-0.033 0-0.033 0-0.033 0-4.307 4.339-10.278 7.015-16.933 7.015h-509.83c-27.864 0-50.474-22.643-50.474-50.474v-923.052c0-27.864 22.611-50.474 50.474-50.474h666.864c27.831 0 50.474 22.611 50.474 50.474v766.018c0 0.065-0.033 0.163-0.065 0.228zM584.285 890.939l101.666-101.699h-99.154c-1.37 0-2.512 1.175-2.512 2.545v99.154zM719.851-0.726c0-1.403-1.109-2.545-2.512-2.545h-666.864c-1.403 0-2.512 1.142-2.512 2.545v923.052c0 1.37 1.109 2.512 2.512 2.512h485.882v-133.053c0-27.831 22.643-50.474 50.474-50.474h133.053v-742.037zM596.096 644.768h-424.347c-13.247 0-23.981-10.734-23.981-23.981s10.734-23.981 23.981-23.981h424.347c13.214 0 23.948 10.734 23.948 23.981s-10.734 23.981-23.948 23.981zM596.096 500.099h-424.347c-13.247 0-23.981-10.734-23.981-23.981s10.734-23.981 23.981-23.981h424.347c13.214 0 23.948 10.734 23.948 23.981s-10.734 23.981-23.948 23.981zM596.096 355.431h-424.347c-13.247 0-23.981-10.767-23.981-24.014 0-13.214 10.734-23.948 23.981-23.948h424.347c13.214 0 23.948 10.734 23.948 23.948 0 13.247-10.734 24.014-23.948 24.014zM383.923 210.73h-212.174c-13.247 0-23.981-10.702-23.981-23.948s10.734-23.981 23.981-23.981h212.174c13.214 0 23.948 10.734 23.948 23.981s-10.734 23.948-23.948 23.948z" />
<glyph unicode="&#xe90a;" glyph-name="link" d="M886.31-51.2h-886.31v885.858h440.546v-133.552h-25.667c-85.417 0-170.835-0.591-256.252 0.452-20.137 0.243-25.145-6.156-25.076-25.528 0.73-108.372 0-216.708-0.035-325.080 0-79.748 0.348-159.497 0.487-239.28 0.035-8.451 0-16.937 0-26.849h616.981v305.534h135.36v-441.555zM791.224 840.292h-206.796v132.508h440.060v-439.503h-132.682v203.527c-122.909-122.075-244.566-242.862-367.719-365.18-34.71 35.127-66.080 66.915-100.129 101.381 122.144 122.179 243.14 243.106 367.267 367.267z" />
<glyph unicode="&#xe90b;" glyph-name="description" horiz-adv-x="1247" d="M733.436 753.423h367.829v-73.082h-367.829v73.082zM733.436 607.062h367.829v-73.082h-367.829v73.082zM733.436 460.767h367.829v-73.082h-367.829v73.082zM733.436 314.472h367.829v-73.017h-367.829v73.017zM718.467 899.652c-37.195 0-70.86-15.558-94.85-40.463-23.794 24.905-57.459 40.463-94.654 40.463h-76.939v73.148h-243.76v-73.148h-208.265v-950.852h1247.299v950.852h-528.832zM718.467 826.57h455.816v-658.458h-455.816c-20.918 0-40.659-4.837-58.243-13.662v613.877c0.065 32.161 26.147 58.243 58.243 58.243zM281.347 899.718h97.595v-241.014l-48.765 27.782-48.83-27.782v241.014zM208.265 826.57v-293.571l121.913 69.356 121.847-69.356v293.571h76.939c32.096 0 58.243-26.082 58.243-58.243v-613.877c-17.584 8.825-37.326 13.662-58.243 13.662h-455.881v658.458h135.182zM73.082 95.095h455.881c32.096 0 58.243-26.082 58.243-58.243v-14.969h-514.124v73.213zM660.289 21.882v14.969c0 32.096 26.082 58.243 58.243 58.243h455.816v-73.213h-514.059z" />
<glyph unicode="&#xe90c;" glyph-name="facebook" horiz-adv-x="557" d="M154.055 394.396c-41.438 0-80.537 0-119.579 0-30.856 0.028-34.448 3.592-34.448 34.17 0 49.402-0.056 98.833 0.028 148.263 0.056 21.137 7.519 28.878 28.544 28.99 40.825 0.251 81.706 0.084 125.455 0.084 0 7.435-0.195 13.98 0.028 20.468 1.81 49.848-0.975 100.392 6.461 149.377 18.352 120.638 107.939 195.298 229.83 196.746 46.005 0.557 92.066 0.195 138.043 0.056 21.861-0.084 27.932-6.294 28.043-28.823 0.167-47.175 0.167-94.321 0-141.468-0.139-22.278-6.377-27.932-28.294-28.433-36.871-0.78-73.797-0.362-110.529-3.453-27.737-2.311-42.051-18.519-42.97-46.033-1.309-38.458-0.334-77-0.334-117.463 5.235-0.278 11.167-0.919 17.127-0.919 42.607-0.084 85.243 0.028 127.822-0.084 23.81-0.084 30.354-6.6 30.354-30.159 0.056-51.129 0.111-102.258 0-153.387-0.056-23.197-4.901-27.848-28.266-27.904-43.749-0.084-87.499-0.585-131.22 0.306-14.258 0.278-18.157-4.038-18.101-18.157 0.529-131.777 0.334-263.582 0.278-395.414 0-28.071-4.344-32.332-32.694-32.332-51.101-0.028-102.23-0.028-153.359 0-25.537 0-32.164 6.433-32.192 32.109-0.056 130.106-0.028 260.184-0.028 390.29v23.17z" />
<glyph unicode="&#xe90d;" glyph-name="twitter" horiz-adv-x="1260" d="M417.945-51.2h-42.83c-0.854 0.142-1.672 0.391-2.49 0.462-22.944 1.85-45.96 3.166-68.833 5.514-30.771 3.237-61.043 9.462-90.96 17.146-74.845 19.316-144.853 49.766-210.129 91.138-0.925 0.569-1.814 1.281-2.704 1.885 68.3-7.115 135.355-2.241 201.342 16.079 65.916 18.356 125.786 48.664 180.425 91.031-55.707 1.814-105.473 18.533-149.477 51.545-44.039 32.94-74.347 75.806-91.778 128.347 50.727-9.96 98.359-1.601 115.078 4.375-39.735 8.502-75.272 25.079-106.825 49.98-31.518 24.865-56.098 55.422-73.422 91.671-17.36 36.249-25.684 74.418-25.221 115.078 18.178-9.96 36.64-17.644 56.027-23.051 19.387-5.371 39.095-8.644 60.047-9.32-55.956 39.521-92.596 91.351-107.501 157.481-14.869 65.952-4.838 128.454 28.458 187.753 66.379-80.928 145.493-144.995 238.16-192.058 92.525-46.956 190.67-72.818 294.543-78.331-0.178 1.423-0.249 2.383-0.427 3.308-7.506 34.897-8.004 69.829-1.138 104.869 10.601 54.177 35.644 100.742 76.126 138.165 64.138 59.371 139.979 81.391 225.994 66.379 53.43-9.32 98.857-34.612 136.955-73.138 2.953-2.988 5.265-3.628 9.249-2.775 51.26 10.779 99.853 28.885 145.706 54.213 4.233 2.348 8.431 4.767 13.482 7.613-20.632-61.256-57.877-108.284-112.339-142.647 1.458 0 2.099-0.071 2.704 0.036 24.652 3.308 49.055 8.111 73.031 14.763 24.332 6.759 47.917 15.403 71.075 25.363v-0.64c-0.498-0.605-0.96-1.174-1.387-1.814-34.114-50.407-75.735-93.521-125.074-129.236-2.134-1.53-2.775-3.13-2.775-5.656 0.142-19.529 0.605-39.059 0.142-58.553-0.676-27.782-3.806-55.351-8.182-82.778-6.225-39.059-15.367-77.478-27.782-115.043-43.968-133.007-116.999-246.876-223.148-338.867-46.423-40.233-97.541-73.458-152.999-99.924-92.987-44.253-191.24-66.343-293.938-69.687-2.455-0.142-4.802-0.462-7.186-0.676z" />
<glyph unicode="&#xe90e;" glyph-name="wechat" horiz-adv-x="1170" d="M1095.639-51.2c-2.213 1.074-4.459 2.278-6.803 3.287-61.842 26.527-123.716 53.054-185.688 79.483-1.725 0.749-4.003 1.139-5.794 0.749-37.235-7.942-74.763-12.010-112.78-10.188-76.423 3.678-147.736 24.021-212.182 66.105-43.517 28.48-79.125 64.576-104.057 110.599-15.623 28.935-25.42 59.693-28.447 92.404-5.175 56.048 8.072 107.67 38.081 155.092 27.178 42.931 63.762 76.163 107.116 102.234 43.875 26.332 91.233 43.029 141.52 51.849 32.418 5.696 65.096 7.746 97.84 6.249 76.456-3.515 147.802-23.923 212.247-66.040 43.517-28.447 79.125-64.543 104.089-110.534 15.623-28.903 25.16-59.693 28.577-92.372 0.26-2.409 0.618-4.785 0.911-7.226v-32.125c-0.586-4.589-1.042-9.146-1.66-13.703-4.622-34.078-15.949-65.747-33.753-95.106-25.55-42.15-60.312-75.186-101.323-101.909-1.4-0.846-2.767-1.823-4.199-2.767 0.684-1.497 1.204-2.604 1.758-3.678 11.913-23.76 23.793-47.586 35.705-71.378 10.155-20.343 20.212-40.685 30.335-61.028h-1.497zM749.553 387.648c0 29.879-24.476 54.518-54.16 54.518-30.628 0.065-55.234-24.346-55.169-54.714 0.065-30.042 24.606-54.551 54.616-54.551 30.302 0 54.714 24.411 54.714 54.746zM914.378 332.902c29.879 0 54.518 24.476 54.518 54.193 0.033 30.53-24.183 55.039-54.356 55.039-30.368 0.065-54.909-24.346-54.941-54.551-0.065-30.14 24.541-54.681 54.779-54.681zM109.46 204.401c7.877 15.753 15.298 30.628 22.719 45.502 11.164 22.328 22.23 44.624 33.492 66.854 1.562 3.027 0.976 4.231-1.627 5.956-48.334 32.418-88.661 72.55-118.671 122.674-20.798 34.664-35.054 71.867-41.336 111.803-11.685 74.568 2.083 144.482 40.002 209.611 29.196 50.157 68.937 90.484 116.653 123.097 55.234 37.691 116.1 61.549 181.684 73.982 39.058 7.421 78.474 10.155 118.085 8.43 90.81-3.906 175.37-28.675 251.533-79.027 56.894-37.658 102.397-85.96 132.927-147.509 10.741-21.514 18.813-44.005 24.411-67.375 0.195-0.781 0.195-1.595 0.358-2.799-6.087 0.586-11.848 1.107-17.609 1.725-22.1 2.376-44.201 3.027-66.366 2.213-69.556-2.539-135.987-17.967-198.837-47.976-46.381-22.1-87.978-51.003-123.716-88.010-42.768-44.266-73.299-95.562-88.238-155.613-4.947-19.887-7.714-40.067-8.625-60.572-1.172-26.917 1.432-53.477 7.356-79.646 0.098-0.521 0.098-1.009 0.195-2.051-4.557 0.586-8.983 1.042-13.312 1.758-30.823 4.98-60.735 13.28-90.159 23.532-1.693 0.586-4.069 0.521-5.728-0.228-50.417-21.449-100.802-42.996-151.187-64.608-0.976-0.456-1.985-0.911-4.003-1.725zM347.322 753.099c0 30.172-24.411 54.746-54.356 54.746-30.368 0-54.909-24.346-54.974-54.518-0.065-30.075 24.476-54.714 54.388-54.746 30.4-0.033 54.941 24.281 54.941 54.518zM585.152 807.846c-30.042 0-54.551-24.444-54.648-54.518-0.065-30.009 24.476-54.714 54.388-54.746 30.4-0.033 54.941 24.314 54.941 54.486 0 30.335-24.411 54.779-54.681 54.779z" />
<glyph unicode="&#xe90f;" glyph-name="device" horiz-adv-x="1303" d="M1256.638 228.053h-1210.024c-12.667 0-23.524-4.56-32.717-13.753s-13.898-20.122-13.898-32.789v-186.096c0-12.595 4.633-23.452 13.825-32.789 9.193-9.193 20.122-13.753 32.717-13.753h1210.096c12.667 0 23.524 4.56 32.789 13.753 9.193 9.337 13.753 20.195 13.753 32.789v186.096c0 12.667-4.56 23.597-13.753 32.789s-20.122 13.753-32.789 13.753zM1210.169 41.957h-465.422v93.084h465.422v-93.084zM1256.638 600.463h-1210.024c-12.667 0-23.524-4.633-32.717-13.825s-13.898-20.122-13.898-32.717v-186.169c0-12.595 4.633-23.524 13.825-32.789 9.193-9.12 20.195-13.68 32.789-13.68h1210.096c12.667 0 23.524 4.56 32.789 13.68 9.193 9.265 13.753 20.195 13.753 32.789v186.169c0 12.595-4.56 23.524-13.753 32.717-9.265 9.193-20.195 13.825-32.862 13.825zM1210.169 414.294h-744.675v93.084h744.675v-93.084zM1289.355 958.975c-9.12 9.193-20.050 13.825-32.717 13.825h-1210.024c-12.667 0-23.597-4.633-32.789-13.825s-13.825-20.122-13.825-32.717v-186.169c0-12.595 4.633-23.524 13.825-32.717s20.195-13.825 32.789-13.825h1210.096c12.667 0 23.524 4.633 32.789 13.825 9.193 9.193 13.753 20.122 13.753 32.717v186.169c0 12.595-4.633 23.524-13.898 32.717zM1210.169 786.631h-279.325v93.084h279.253v-93.084z" />
<glyph unicode="&#xe910;" glyph-name="download" horiz-adv-x="991" d="M853.069 320.194v-233.964h-715.539v233.964h-137.529v-302.703c0-37.968 30.772-68.74 68.889-68.74h852.87c38.067 0 68.839 30.722 68.839 68.74v302.703h-137.529zM482.717 343.421l-196.889 237.884c0 0-29.978 28.29 2.482 28.29h110.976v346.33c0 0-4.417 16.875 20.994 16.875h156.191c18.314 0 17.917-14.195 17.917-14.195v-341.863h102.39c39.408 0 9.678-29.63 9.678-29.63s-167.507-222.35-190.784-245.726c-16.825-16.875-32.955 2.035-32.955 2.035z" />
<glyph unicode="&#xe911;" glyph-name="addFile" horiz-adv-x="973" d="M187.71 563.2h426.69c9.428 0 17.020 7.662 17.020 17.055 0 9.428-7.627 17.090-17.020 17.090h-426.69c-9.428 0-17.020-7.662-17.020-17.090 0-9.393 7.592-17.055 17.020-17.055zM187.71 699.745h170.69c9.428 0 17.055 7.662 17.055 17.055 0 9.428-7.627 17.090-17.055 17.090h-170.69c-9.428 0-17.020-7.662-17.020-17.090s7.592-17.055 17.020-17.055zM187.71 426.655h426.69c9.428 0 17.020 7.662 17.020 17.055 0 9.428-7.627 17.090-17.020 17.090h-426.69c-9.428 0-17.020-7.662-17.020-17.090 0-9.393 7.592-17.055 17.020-17.055zM477.855 324.255h-290.145c-9.393 0-17.020-7.627-17.020-17.020 0-9.463 7.627-17.090 17.020-17.090h290.145c9.463 0 17.020 7.662 17.020 17.090 0.035 9.393-7.556 17.020-17.020 17.020zM426.69 187.745h-238.98c-9.393 0-17.020-7.627-17.020-17.055s7.627-17.055 17.020-17.055h238.98c9.428 0 17.020 7.662 17.020 17.055 0 9.428-7.592 17.055-17.020 17.055zM802.145 386.33v337.532l-248.973 248.938h-553.172v-1024h750.945c122.35 0 221.855 99.505 221.855 221.855 0 104.695-72.986 192.441-170.655 215.676zM563.2 914.538l180.648-180.648h-180.648v180.648zM632.761-17.055h-598.652v955.71h494.945v-238.91h238.91v-307.942c-5.826 0.494-11.441 0.742-17.020 0.742-122.315 0-221.855-99.505-221.855-221.855 0-6.78 0.424-13.524 1.024-20.162 0.141-1.554 0.282-3.107 0.459-4.661 0.706-6.532 1.695-12.959 2.966-19.315 0.141-0.742 0.353-1.483 0.494-2.225 1.236-5.756 2.719-11.405 4.378-16.984 0.459-1.412 0.847-2.825 1.306-4.202 1.871-6.003 4.061-11.935 6.497-17.69 0.459-1.095 0.953-2.189 1.412-3.249 2.225-5.049 4.59-9.958 7.133-14.83 0.636-1.165 1.201-2.33 1.836-3.496 3.001-5.438 6.215-10.699 9.64-15.854 0.742-1.165 1.554-2.26 2.366-3.46 3.143-4.484 6.426-8.898 9.816-13.135 0.671-0.812 1.236-1.624 1.942-2.436 3.955-4.767 8.086-9.287 12.429-13.665 1.059-1.095 2.189-2.119 3.213-3.178 4.202-4.096 8.51-8.086 12.959-11.794 0.424-0.318 0.777-0.706 1.201-1.024 4.802-3.955 9.852-7.627 14.972-11.158 1.271-0.883 2.542-1.766 3.814-2.578 1.306-0.883 2.542-1.836 3.814-2.648zM750.945-17.055c-103.53 0-187.71 84.215-187.71 187.71s84.215 187.71 187.71 187.71c5.297 0 10.593-0.353 15.819-0.777 4.979-0.494 10.063-1.095 15.466-2.048l7.592-1.271c84.886-17.973 148.833-93.431 148.833-183.614 0-103.495-84.215-187.71-187.71-187.71zM853.345 187.745h-85.345v85.345c0 9.428-7.662 17.055-17.055 17.055s-17.055-7.662-17.055-17.055v-85.345h-85.31c-9.463 0-17.055-7.627-17.055-17.055s7.627-17.055 17.055-17.055h85.31v-85.31c0-9.463 7.662-17.090 17.055-17.090s17.055 7.662 17.055 17.090v85.274h85.345c9.428 0 17.020 7.662 17.020 17.055 0 9.463-7.592 17.090-17.020 17.090z" />
<glyph unicode="&#xe912;" glyph-name="reset" horiz-adv-x="1050" d="M60.158 876.032l78.32-93.502c181.734 187.807 386.9 241.605 620.542 138.879 176.749-77.632 282.57-252.949 291.164-432.792-40.105-5.901-80.669-11.86-121.633-17.875-21.6 189.869-117.68 317.060-302.68 363.926-147.415 37.298-302.221-21.943-390.739-142.030 39.418-36.037 79.408-72.705 119.456-109.315-1.604-2.922-3.208-5.787-4.813-8.709-114.815-17.36-229.688-34.72-349.775-52.882 17.36 118.196 34.376 233.813 51.335 349.431 2.922 1.604 5.901 3.266 8.823 4.87zM36.267 412.015c41.308 3.495 80.783 6.818 121.748 10.313 31.053-180.817 132.29-297.179 310.070-337.514 122.607-27.844 232.782 6.188 335.279 91.44-42.798 39.074-83.419 76.085-130.113 118.711 125.93 18.506 240.975 35.579 361.692 53.397-17.818-118.769-35.006-233.527-53.283-354.874-31.339 33.918-58.611 63.366-85.309 92.127-195.083-153.145-397.213-182.078-610.687-64.684-154.978 85.309-239.772 249.111-249.397 391.083z" />
<glyph unicode="&#xe913;" glyph-name="filter" d="M983.967 972.8h-943.971c-22.099 0-39.996-17.933-39.996-39.996 0-111.367 47.785-217.697 131.039-291.712l175.165-155.71c30.36-26.99 47.785-65.791 47.785-106.439v-390.109c0-31.881 35.613-51.010 62.204-33.294l235.957 157.341c11.158 7.427 17.861 19.889 17.861 33.258v232.768c0 40.648 17.353 79.449 47.749 106.439l175.165 155.71c83.253 74.015 131.002 180.346 131.002 291.712 0.036 22.099-17.861 40.033-39.96 40.033zM839.814 700.832l-175.201-155.71c-47.423-42.17-74.631-102.744-74.631-166.217v-211.357l-156.036-103.94v315.297c0 63.472-27.208 124.047-74.667 166.217l-175.129 155.71c-56.118 49.959-91.984 118.322-101.549 191.975h858.798c-9.637-73.653-45.467-142.016-101.585-191.975z" />
<glyph unicode="&#xe914;" glyph-name="eye" horiz-adv-x="1567" d="M783.533 972.8c-345.613 0-643.504-203.801-780.394-497.769-4.209-8.917-4.209-19.332 0-28.462 136.89-294.11 434.781-497.769 780.394-497.769 345.685 0 643.504 203.659 780.394 497.769 4.209 8.917 4.209 19.332 0 28.462-136.89 293.968-434.638 497.769-780.394 497.769zM783.533 107.518c-195.17 0-353.175 158.29-353.175 353.175 0 195.17 158.148 353.246 353.175 353.246 195.17 0 353.246-158.219 353.246-353.246 0-194.956-158.219-353.175-353.246-353.175zM783.533 687.036c124.835 0 226.129-101.223 226.129-226.129 0-124.835-101.294-226.058-226.129-226.058s-226.058 101.223-226.058 226.058c0 124.906 101.223 226.129 226.058 226.129z" />
<glyph unicode="&#xe915;" glyph-name="tick" horiz-adv-x="1331" d="M15.36 409.6c-10.189 10.24-15.36 25.6-15.36 35.84s5.171 25.6 15.36 35.84l71.68 71.68c20.531 20.48 51.2 20.48 71.731 0l5.069-5.12 281.6-302.080c10.291-10.24 25.6-10.24 35.891 0l686.029 711.68h5.12c20.429 20.48 51.2 20.48 71.629 0l71.629-71.68c20.531-20.48 20.531-51.2 0-71.68l-819.2-849.92c-10.138-10.24-20.378-15.36-35.738-15.36s-25.6 5.12-35.84 15.36l-399.36 430.080-10.24 15.36z" />
<glyph unicode="&#xe916;" glyph-name="concept04" horiz-adv-x="998" d="M405.26 128.773h-25.904v183.306c0 7.049-2.813 13.82-7.813 18.855l-147.124 147.159c-14.758 14.758-34.411 22.883-55.28 22.883-4.306 0-8.611-0.417-12.778-1.111v101.15c0 43.092-35.071 78.163-78.198 78.163-43.092 0-78.163-35.071-78.163-78.163v-311.020c0-7.049 2.778-13.82 7.813-18.82l109.206-109.241v-33.161h-20.869c-14.653 0-26.598-11.945-26.598-26.598v-153.409h53.197v126.776h255.948v-126.776h53.162v153.409c0 14.688-11.875 26.598-26.598 26.598zM326.159 128.773h-155.944v44.134c0 7.049-2.813 13.82-7.778 18.785l-109.241 109.275v300.012c0 13.785 11.216 24.966 24.966 24.966 13.785 0 25.001-11.181 25.001-24.966v-136.325c-7.917-12.431-12.223-26.807-12.223-41.911 0-20.869 8.125-40.522 22.918-55.28l83.962-83.927 37.606 37.606-35.8 35.731-48.162 48.196c-4.722 4.722-7.327 11.007-7.327 17.674s2.604 12.952 7.327 17.674c9.41 9.445 25.869 9.445 35.314 0l139.381-139.346v-172.299zM920.281 679.177c-43.092 0-78.198-35.071-78.198-78.163v-101.15c-4.202 0.694-8.438 1.111-12.778 1.111-20.869 0-40.488-8.125-55.28-22.883l-147.159-147.124c-5-5.035-7.778-11.737-7.778-18.785v-183.376h-25.939c-14.688 0-26.598-11.945-26.598-26.598v-153.409h53.162v126.776h255.948v-126.776h53.197v153.409c0 14.653-11.91 26.598-26.598 26.598h-20.869v33.161l109.206 109.241c5.035 5 7.813 11.771 7.813 18.82v311.020c0.035 43.057-35.036 78.128-78.128 78.128zM945.282 301.002l-109.241-109.241c-4.965-5.035-7.813-11.771-7.813-18.855v-44.134h-155.909v172.299l139.346 139.381c9.445 9.445 25.904 9.445 35.314 0 4.792-4.722 7.327-11.007 7.327-17.674 0-6.702-2.535-12.952-7.327-17.674l-83.892-83.962 37.571-37.606 83.962 83.962c14.792 14.758 22.918 34.376 22.918 55.28 0 15.070-4.271 29.446-12.223 41.877v136.325c0 13.785 11.181 24.966 24.966 24.966s25.036-11.181 25.036-24.966v-299.977zM706.8 636.71c0 151.916-181.605 321.853-189.313 329.006-10.209 9.445-25.939 9.445-36.147 0-7.743-7.153-189.348-177.091-189.348-329.006 0-134.728 67.051-218.933 180.806-230.114v-78.406h53.197v78.406c113.755 11.181 180.806 95.351 180.806 230.114zM472.797 460.21c-83.545 10.278-127.609 70.663-127.609 176.5 0 17.848 3.333 36.286 8.993 54.863l118.616-118.616v-112.748zM472.797 648.169l-96.566 96.566c26.911 52.398 66.218 101.532 96.566 135.492v-232.058zM525.994 880.192c30.348-33.96 69.621-83.094 96.566-135.457l-96.566-96.566v232.023zM525.994 460.21v112.748l118.616 118.616c5.66-18.542 8.993-36.981 8.993-54.863 0-105.872-44.030-166.222-127.609-176.5zM472.797 291.557h53.197v-65.836h-53.197v65.836z" />
<glyph unicode="&#xe917;" glyph-name="concept03" horiz-adv-x="1127" d="M1120.821 240.923l-53.739 53.316c-8.604 8.544-22.582 8.484-31.126-0.121-8.604-8.604-8.514-22.582 0.121-31.126l53.769-53.316c4.287-4.287 9.902-6.37 15.458-6.37 5.676 0 11.321 2.144 15.669 6.491 8.544 8.604 8.484 22.582-0.151 31.126zM1012.316 348.763c-8.604 8.604-22.552 8.604-31.157 0h-0.030c-8.574-8.604-8.574-22.582 0.030-31.126 4.317-4.317 9.902-6.491 15.578-6.491 5.646 0 11.261 2.174 15.608 6.491 8.574 8.604 8.574 22.522-0.030 31.126zM824.592 247.233l213.628 213.628c32.364 32.364 32.364 85.016 0 117.35-11.412 11.412-25.36 18.778-40.033 22.16 5.042 10.808 7.699 22.703 7.699 34.991 0 22.16-8.604 42.991-24.303 58.66-12.257 12.318-27.775 20.258-44.591 23.096 9.45 28.832 2.808 61.83-20.107 84.684-12.559 12.589-28.198 20.228-44.531 23.035 2.778 8.302 4.196 17.058 4.196 26.054 0 22.19-8.665 42.991-24.334 58.69-15.669 15.669-36.5 24.303-58.69 24.303-14.039 0-27.594-3.502-39.61-10.053l-2.083 2.264c-27.654 29.707-66.751 46.705-107.267 46.705h-172.931c-12.167 0-22.009-9.842-22.009-22.009v-28.892c0-11.563 1.962-22.794 5.706-33.391-9.963 4.136-20.741 6.31-31.851 6.31-22.19 0-43.021-8.604-58.69-24.303-22.884-22.884-29.556-55.913-20.077-84.714-16.333-2.808-32.002-10.476-44.591-23.035-15.669-15.699-24.303-36.53-24.303-58.69 0-8.967 1.449-17.722 4.166-25.994-16.786-2.898-32.243-10.808-44.531-23.096-25.269-25.269-30.794-62.917-16.605-93.621-15.035-3.442-28.832-10.989-40.033-22.19-32.334-32.364-32.334-84.986 0-117.35l43.957-43.927-216.315-216.284c-8.604-8.604-8.604-22.522 0-31.126 4.317-4.347 9.963-6.491 15.578-6.491 5.646 0 11.261 2.144 15.578 6.491l218.368 218.337c12.378-7.065 26.386-10.838 41.029-10.838 22.16 0 42.991 8.665 58.66 24.364 17.027 17.027 25.088 39.67 24.213 62.011 1.087-0.030 2.204-0.060 3.351-0.060 21.224 0 42.478 8.061 58.66 24.273 15.669 15.669 24.303 36.5 24.303 58.66 0 1.117-0.030 2.234-0.060 3.351 1.087-0.060 2.174-0.091 3.291-0.091 21.254 0 42.508 8.091 58.69 24.273 15.669 15.669 24.303 36.5 24.303 58.69 0 1.117-0.030 2.234-0.091 3.351 1.117-0.060 2.204-0.091 3.321-0.091 21.254 0 42.508 8.091 58.66 24.273 30.462 30.402 32.213 78.707 5.525 111.282l146.182 146.182c7.366 7.366 17.148 11.412 27.534 11.412 10.446 0 20.228-4.046 27.534-11.412 7.366-7.366 11.442-17.148 11.442-27.534 0-10.416-4.076-20.197-11.442-27.534l-21.526-21.556-78.223-78.223c-8.574-8.574-8.574-22.522 0-31.126 4.257-4.317 9.933-6.491 15.578-6.491 5.615 0 11.261 2.174 15.578 6.461l78.193 78.193c15.186 15.186 39.882 15.186 55.067 0 15.186-15.156 15.186-39.882 0-55.067l-21.586-21.556-56.607-56.637c-8.604-8.604-8.604-22.552 0-31.157 4.287-4.287 9.902-6.461 15.548-6.461s11.291 2.174 15.608 6.461l56.607 56.667c7.366 7.336 17.148 11.382 27.594 11.382 10.386 0 20.167-4.046 27.534-11.382 7.306-7.366 11.382-17.148 11.382-27.534 0-10.416-4.076-20.197-11.382-27.564l-56.667-56.637c-8.574-8.604-8.574-22.552 0-31.157 4.347-4.287 9.933-6.461 15.608-6.461 5.646 0 11.261 2.174 15.578 6.461l27.051 27.081c15.216 15.186 39.882 15.156 55.067 0 15.216-15.186 15.216-39.912 0-55.098l-213.628-213.628c-53.648-53.648-124.958-84.684-200.736-87.432-5.585-0.242-10.869-2.536-14.824-6.491l-197.355-198.080c-8.574-8.604-8.544-22.552 0.060-31.126 4.287-4.287 9.933-6.431 15.548-6.431 5.646 0 11.291 2.144 15.608 6.461l145.156 145.699c36.863-23.609 80.216-34.87 124.324-32.002l113.607-113.577c4.317-4.347 9.963-6.491 15.608-6.491s11.261 2.144 15.608 6.491c8.544 8.544 8.544 22.492 0 31.096l-120.822 120.822c-4.589 4.559-10.959 6.883-17.39 6.37l-6.944-0.574c-32.243-2.657-64.094 4.408-91.9 19.986l14.159 14.22c83.567 5.193 161.942 40.455 221.417 99.93zM324.547 393.475c-7.366-7.336-17.148-11.442-27.534-11.442-10.416 0-20.197 4.106-27.534 11.442l-59.505 59.505c-15.186 15.186-15.186 39.882 0 55.067 7.336 7.366 17.118 11.412 27.534 11.412 10.386 0 20.167-4.046 27.534-11.412l59.505-59.475c15.186-15.216 15.186-39.942 0-55.098zM410.771 479.669c-15.186-15.186-39.912-15.186-55.098 0l-89.092 89.092c-15.186 15.186-15.186 39.882 0 55.067 7.366 7.366 17.148 11.412 27.534 11.412 10.416 0 20.197-4.046 27.564-11.412l89.092-89.092c7.336-7.366 11.412-17.118 11.412-27.534 0-10.386-4.076-20.167-11.412-27.534zM496.995 565.893c-15.186-15.186-39.912-15.186-55.098 0l-110.648 110.648c-7.336 7.336-11.412 17.118-11.412 27.534s4.076 20.167 11.412 27.534c7.608 7.578 17.571 11.382 27.534 11.382 9.993 0 19.956-3.804 27.534-11.382l110.678-110.648c7.336-7.366 11.382-17.118 11.382-27.534 0-10.386-4.046-20.197-11.382-27.534zM583.189 652.117c-15.186-15.186-39.882-15.186-55.067 0l-110.648 110.648c0 0-0.030 0-0.030 0.030l-21.526 21.526c-15.186 15.186-15.186 39.882 0 55.067 7.578 7.578 17.571 11.382 27.534 11.382 9.993 0 19.956-3.804 27.534-11.382l132.204-132.204c7.366-7.366 11.412-17.118 11.412-27.534s-4.046-20.197-11.412-27.534zM588.986 763.671l-60.471 60.502c6.853-1.479 13.918-2.234 21.073-2.234h0.483l60.441 0.272c12.137 0.060 22.009 9.963 21.948 22.13-0.060 12.137-9.902 21.918-22.039 21.918h-0.091l-60.713-0.302c-14.884 0-28.892 5.797-39.459 16.303-10.597 10.567-16.454 24.666-16.454 39.64v6.853h150.892c28.319 0 55.701-11.895 74.993-32.636l0.906-0.966-131.51-131.479z" />
<glyph unicode="&#xe918;" glyph-name="concept02" horiz-adv-x="922" d="M914.18 835.124l-43.751 38.573 43.751 38.507c6.817 5.997 9.143 15.37 5.932 23.825-3.212 8.521-11.143 13.994-20.188 13.994h-181.066v7.767c-0.033 8.259-6.751 15.010-15.042 15.010-8.259 0-15.010-6.718-15.010-15.010v-202.401l-123.256-66.921c-0.688 5.407-2.294 10.749-4.883 15.763l-17.336 33.886c-11.896 23.301-40.539 32.543-63.807 20.614l-13.437-6.882c-11.274-5.768-19.631-15.6-23.53-27.66-3.867-12.060-2.851-24.907 2.949-36.148l17.369-33.952c4.064-7.898 10.061-14.158 17.074-18.549-9.209-12.421-13.6-27.693-18.090-43.554l-3.212-11.437c-2.261-7.964 2.36-16.288 10.323-18.516 1.376-0.393 2.753-0.59 4.097-0.59 6.554 0 12.585 4.326 14.42 10.946l3.277 11.405c6.554 23.203 10.618 35.623 23.465 42.604l23.039 12.519 2.851 1.475c0.95 0.492 1.835 1.016 2.72 1.573l164.32 89.206c-1.081-20.548-12.158-39.917-30.347-51.026l-106.87-64.922c-0.098-0.066-0.229-0.131-0.36-0.229l-33.297-20.188c-7.079-4.293-9.34-13.535-4.981-20.614 4.031-6.686 12.486-9.045 19.368-5.702l-25.267-76.294-68.592-28.119 14.453 51.092c2.196 7.996-2.392 16.288-10.389 18.549-7.964 2.261-16.255-2.392-18.516-10.356l-22.842-80.783c-0.295-1.016-0.492-2.163-0.524-3.244l-5.997-109.82c-0.164-4.195 0.721-12.093-1.213-16.157l-66.364-139.675h-48.208c-28.282 0-51.256-23.006-51.256-51.223v-43.325c-6.456 2.949-13.633 4.621-21.204 4.621h-122.47c-28.25 0-51.223-22.973-51.223-51.223v-53.779h-36.049c-8.291 0.066-15.010-6.653-15.010-14.944s6.718-15.010 15.010-15.010h884.882c8.291 0 14.977 6.718 14.977 15.010s-6.686 15.010-14.977 15.010h-39.032v386.843c0 28.25-22.973 51.223-51.223 51.223h-90.812v261.784c16.648 22.58 22.809 52.141 15.075 80.226-1.213 4.391-4.359 8.029-8.586 9.832-2.097 0.885-4.293 1.278-6.489 1.213v27.398h181.066c9.045 0 17.009 5.473 20.188 13.961 3.244 8.488 0.918 17.861-5.899 23.825zM471.068 714.948c1.475 4.424 4.523 8.029 8.685 10.159l13.404 6.882c2.556 1.278 5.211 1.901 7.865 1.901 6.358 0 12.486-3.474 15.567-9.471l17.369-33.919c4.031-7.931 1.442-17.5-5.801-22.351l-4.85-2.655-10.323-5.309c-8.554-4.359-19.041-0.983-23.432 7.57l-17.369 33.919c-2.13 4.162-2.556 8.881-1.114 13.273zM440.95 169.127c-5.112 2.327-10.651 3.867-16.484 4.391l16.484 21.892v-26.283zM512.197 290.057c7.243 8.652 9.209 18.713 10.815 26.873 0.426 1.966 7.8 42.374 7.8 42.374s7.013-4.359 7.734-4.686c0.524-0.229 0.885-0.721 0.918-1.311l8.16-82.979h-50.273l14.846 19.729zM600.944 372.872l-12.683-102.479h-10.422l-8.488 85.863c-1.049 10.979-7.767 20.581-17.664 25.366l-15.108 9.569 10.094 55.746c0 0 42.342-50.338 43.325-51.616 8.783-11.405 11.732-15.927 10.946-22.449zM438.852 300.282c3.015 9.111 4.424 18.418 4.195 27.856l5.44 100.119 69.444 28.413-12.617-69.87c-0.098-0.197-0.131-0.393-0.164-0.557l-10.389-57.81c-1.344-5.997-2.556-15.042-6.292-19.958l-101.397-134.726h-8.357l60.137 126.533zM81.078 32.599c0 11.667 9.504 21.171 21.204 21.171h122.502c11.7 0 21.236-9.504 21.236-21.171v-53.779h-164.942v53.779zM275.975 32.599v89.927c0 11.667 9.537 21.171 21.236 21.171h122.502c11.667 0 21.204-9.504 21.204-21.171v-143.706h-164.942v53.779zM830.841 365.662v-386.843h-164.91v89.96c0 8.324-6.718 15.010-15.010 15.010-8.324 0-15.010-6.686-15.010-15.010v-89.96h-164.975v240.319c0 11.667 9.504 21.171 21.204 21.171h122.502c11.667 0 21.204-9.504 21.204-21.171v-75.278c0-8.291 6.686-15.010 14.977-15.010 8.324 0 15.010 6.718 15.010 15.010v221.802c0 11.667 9.537 21.204 21.236 21.204h16.55c0.033 0 0.098-0.033 0.131-0.033 0.066 0 0.098 0.033 0.164 0.033h105.658c11.732 0 21.269-9.537 21.269-21.204zM687.135 416.885c-28.25 0-51.223-22.973-51.223-51.223v-99.922c-5.375 2.425-11.241 3.998-17.402 4.457l12.224 99.005c2.425 19.336-7.439 32.084-16.943 44.439-1.016 1.344-59.35 70.591-59.35 70.591l35.787 108.214 98.579 59.875v-235.435h-1.671zM718.825 827.357v92.647h158.781l-34.214-30.118c-4.654-4.097-7.341-9.996-7.341-16.189 0-6.227 2.687-12.126 7.341-16.222l34.181-30.118h-158.749z" />
<glyph unicode="&#xe919;" glyph-name="concept01" horiz-adv-x="760" d="M732.108 514.747c-10.626 2.978-21.69-3.211-24.667-13.837-28.696-102.552-105.208-186.713-204.695-225.246-7.648-3.007-12.757-10.392-12.757-18.654v-28.229h-89.999v180.903c5.342-0.613 10.713-0.905 16.026-0.905 38.242 0 75.082 15.005 103.077 43.029 37.016 36.986 51.349 89.328 38.358 140.034-1.839 7.064-7.356 12.582-14.421 14.392-50.648 12.99-102.99-1.343-140.005-38.358-9.050-9.079-16.756-19.062-23.062-29.747-6.247 10.684-13.983 20.668-23.033 29.747-37.016 37.016-89.357 51.349-140.034 38.358-7.064-1.81-12.611-7.327-14.421-14.392-12.961-50.707 1.401-103.048 38.388-140.034 28.024-28.024 64.836-43.029 103.106-43.029 5.313 0 10.655 0.292 15.997 0.905v-180.903h-89.97v28.229c0 8.232-5.079 15.647-12.757 18.654-129.934 50.327-217.218 177.78-217.218 317.114 0 187.501 152.529 340 340 340 157.345 0 293.205-106.609 330.396-259.255 2.569-10.772 13.399-17.34 24.113-14.713 10.743 2.598 17.34 13.428 14.713 24.142-19.763 81.3-66.937 154.893-132.736 207.293-67.842 54.005-149.609 82.555-236.485 82.555-209.541 0-380.023-170.482-380.023-380.023 0-78.147 23.558-153.258 68.134-217.131 40.927-58.647 96.684-104.070 161.87-132.065v-18.187c-23.266-8.261-39.993-30.535-39.993-56.574 0-26.098 16.727-48.313 39.993-56.545v-13.458c0-82.73 67.288-150.018 150.018-150.018 82.701 0 149.989 67.288 149.989 150.018v13.458c23.266 8.203 39.993 30.447 39.993 56.545 0 26.069-16.727 48.313-39.993 56.574v18.187c104.887 45.16 185.107 136.385 215.963 246.527 2.978 10.626-3.24 21.661-13.866 24.638zM431.371 539.648c23.938 23.967 56.779 34.855 89.736 30.243 4.612-32.929-6.276-65.799-30.243-89.766-23.996-23.967-56.837-34.855-89.766-30.272-4.612 32.958 6.276 65.799 30.272 89.795zM358.946 449.853c-32.958-4.583-65.799 6.305-89.766 30.272-23.996 23.996-34.885 56.837-30.301 89.766 32.958 4.612 65.799-6.276 89.795-30.243 23.967-23.996 34.855-56.837 30.272-89.795zM490.018 98.818c0-60.661-49.335-110.025-109.996-110.025s-110.025 49.335-110.025 110.025v9.984h220.021v-9.984zM510.015 148.795h-260.014c-11.005 0-19.997 8.991-19.997 19.997 0 11.035 8.991 19.997 19.997 19.997h259.985c11.064 0 20.026-8.962 20.026-19.997 0-11.005-8.933-19.997-19.997-19.997zM740.019 612.774c-11.005 0-19.997-8.962-19.997-19.997l-0.029-1.722c-0.029-11.035 8.904-20.026 19.967-20.084h0.058c11.005 0 19.967 8.904 20.026 19.909v1.897c-0.029 11.035-8.962 19.997-20.026 19.997zM379.993 864.789c-11.035 0-19.997-8.962-19.997-19.997v-131.481c0-11.064 8.962-20.026 19.997-20.026s19.997 8.962 19.997 20.026v131.481c0 11.035-8.962 19.997-19.997 19.997zM292.505 727.47l-38.154 38.096c-7.823 7.794-20.464 7.794-28.287-0.029-7.794-7.765-7.794-20.434 0.029-28.258l38.125-38.125c3.912-3.883 9.020-5.838 14.158-5.838 5.109 0 10.246 1.956 14.129 5.868 7.823 7.794 7.823 20.464 0 28.287zM533.952 765.536c-7.823 7.823-20.464 7.794-28.287 0l-40.548-40.606c-7.823-7.823-7.823-20.464 0-28.287 3.883-3.912 9.020-5.838 14.1-5.838 5.138 0 10.246 1.956 14.158 5.868l40.548 40.577c7.853 7.823 7.853 20.493 0.029 28.287zM394.414 648.768c-3.707 3.707-8.874 5.868-14.129 5.868-5.284 0-10.422-2.16-14.158-5.868s-5.838-8.874-5.838-14.129c0-5.313 2.102-10.422 5.838-14.158s8.874-5.838 14.158-5.838c5.255 0 10.422 2.102 14.129 5.838s5.868 8.845 5.868 14.158c0 5.255-2.16 10.422-5.868 14.129z" />
<glyph unicode="&#xe91a;" glyph-name="instagram" d="M1023.803 669.928v5.983c-1.517-1.994-1.517-3.988 0-5.983zM1023.803 244.481v5.927c0 0 0 0-0.028 0-1.461-1.966-1.461-3.988 0.028-5.927zM296.72-51.144c0-0.056-0.028 0-0.056-0.056h3.988c0 0-0.028 0-0.056 0.056-1.264 1.152-2.584 1.208-3.876 0zM724.218-51.144c-0.028-0.056-0.028-0.056-0.056-0.056h4.017c-0.028 0.056-0.028 0-0.056 0.056-1.348 1.208-2.612 1.152-3.904 0zM787.781 769.247c-18.65 0.309-34.52-15.42-34.52-34.155 0.056-18.482 15.083-33.762 33.537-33.986 18.763-0.225 34.632 15.392 34.632 34.014 0 18.061-15.589 33.846-33.649 34.127zM512.716 715.88c-141.029 0.14-255.656-113.981-256.021-254.869-0.393-141.422 114.065-256.358 255.375-256.527 140.973-0.169 255.628 114.065 255.993 254.926 0.421 141.394-114.009 256.33-255.347 256.47zM511.902 300.404c-87.662 0.169-159.286 72.017-159.286 159.792 0 88.252 71.961 159.961 160.298 159.764 87.718-0.14 159.314-71.933 159.314-159.764-0.028-88.168-72.017-159.961-160.326-159.792zM1020.995 711.47c-15.027 77.916-53.255 142.406-115.076 191.896-57.664 46.176-123.502 70.332-198.385 69.405-84.207-1.011-168.415-0.028-252.679-0.309-55.221-0.169-110.47 1.095-165.662-0.843-46.514-1.601-88.786-17.358-128.502-39.744-42.862-24.156-78.702-56.766-106.172-97.971-33.818-50.671-54.462-105.667-54.462-167.32-0.056-137.827-0.112-275.626 0.084-413.426 0.028-21.291 1.713-42.525 7.443-63.198 11.516-41.486 28.734-80.107 54.799-114.599 33.396-44.21 75.163-77.747 125.637-100.667 31.458-14.269 64.068-23.65 98.645-25.897h9.999c0 0.056 0.028 0 0.056 0.056 1.264 2.696 2.584 2.079 3.876 0 0-0.056 0.028 0 0.056-0.056h423.509c0.028 0.056 0.028 0 0.056 0.056 1.292 2.079 2.584 2.696 3.904 0 0.028-0.056 0.028 0 0.056-0.056h5.983c27.638 1.376 54.266 7.303 80.247 16.909 79.826 29.52 138.726 82.55 177.403 157.713 17.836 34.66 29.886 71.54 31.992 111.031v9.971c-3.202 2.022-2.359 3.96-0.028 5.983 0.028 0 0 0 0.028 0.056v419.464c-2.303 1.994-3.23 3.988 0 5.983v8.005c-2.247 9.044-1.039 18.482-2.809 27.554zM927.855 270.771c-0.112-112.408-77.551-204.087-188.442-223.327-12.387-2.135-25.082-2.809-37.778-2.809-126.143 0.112-252.313-0.056-378.456 0.112-112.464 0.112-203.974 77.186-223.523 188.161-2.022 11.46-2.809 23.088-2.781 34.773 0.056 128.165-0.253 256.302 0.112 384.467 0.309 110.413 79.742 203.075 188.835 220.939 12.808 2.079 25.785 2.668 38.789 2.64 62.608-0.112 125.16-0.056 187.739-0.056 63.254 0 126.508 0.112 189.762 0 107.408-0.253 196.699-71.456 220.658-175.971 3.708-16.235 5.196-32.807 5.196-49.491-0.112-126.508 0.056-252.988-0.112-379.439z" />
<glyph unicode="&#xe91b;" glyph-name="menu-close" horiz-adv-x="1038" d="M823.241 972.8h214.438v-214.48h-214.438v214.48zM0 972.8h214.438v-214.48h-214.438v214.48zM411.641 568.019h214.438v-214.438h-214.438v214.438zM823.241 163.238h214.438v-214.438h-214.438v214.438zM0 163.238h214.438v-214.438h-214.438v214.438z" />
<glyph unicode="&#xe91c;" glyph-name="qa" d="M880.722 907.387h-736.625c-77.005 0-139.653-62.628-139.653-139.674v-450.785c0-76.861 62.382-139.407 139.182-139.674v-204.554l293.97 204.554h443.126c76.984 0 139.653 62.669 139.653 139.674v450.785c0.020 77.046-62.669 139.674-139.653 139.674zM960.86 316.928c0-44.196-35.901-80.159-80.118-80.159h-461.804l-215.777-150.139v150.139h-59.064c-44.196 0-80.138 35.963-80.138 80.159v450.785c0 44.196 35.942 80.159 80.138 80.159h736.625c44.216 0 80.118-35.942 80.118-80.159v-450.785zM276.357 697.057h472.166v-59.515h-472.166v59.515zM276.357 570.081h472.166v-59.535h-472.166v59.535zM276.357 443.044h472.166v-59.515h-472.166v59.515z" />
<glyph unicode="&#xe91d;" glyph-name="arrowDown" horiz-adv-x="1661" d="M1660.525 779.103l-193.778 193.697-636.362-636.525-636.607 636.525-193.778-193.697 830.385-830.303z" />
<glyph unicode="&#xe91e;" glyph-name="ii01" horiz-adv-x="1046" d="M378.435 460.8h-44.522v89.043c0 65.425 51.512 108.9 153.222 129.425-40.003 23.174-64.178 65.914-64.178 115.445v44.522c0 76.132 57.433 133.565 133.565 133.565 76.154 0 133.565-57.433 133.565-133.565v-44.522c0-49.508-24.175-92.249-64.178-115.423 48.996-9.839 85.526-24.732 111.215-45.279l-27.826-34.771c-22.773 18.232-60.438 31.677-111.772 39.914-10.841 1.736-18.744 11.064-18.744 21.994v30.698c0 9.060 5.498 17.208 13.891 20.636 32.634 13.223 52.892 44.722 52.892 82.232v44.522c0 51.601-37.487 89.043-89.043 89.043-51.601 0-89.043-37.443-89.043-89.043v-44.522c0-37.51 20.257-69.031 52.87-82.232 8.415-3.406 13.913-11.576 13.913-20.636v-30.698c0-10.93-7.925-20.257-18.721-21.971-90.98-14.625-137.105-44.678-137.105-89.333v-89.043zM44.522 238.191h-44.522v244.87c0 65.402 51.512 108.9 153.222 129.425-40.003 23.174-64.178 65.914-64.178 115.445v44.522c0 76.132 57.433 133.565 133.565 133.565s133.565-57.433 133.565-133.565v-44.522c0-49.53-24.175-92.249-64.178-115.445 8.838-1.781 17.363-3.74 25.489-5.877l-11.331-43.075c-13.045 3.428-27.359 6.411-42.518 8.838-10.819 1.736-18.766 11.064-18.766 21.994v30.698c0 9.060 5.498 17.23 13.891 20.636 32.634 13.223 52.892 44.722 52.892 82.232v44.522c0 51.601-37.443 89.043-89.043 89.043s-89.043-37.443-89.043-89.043v-44.522c0-37.51 20.257-69.031 52.87-82.232 8.415-3.406 13.913-11.576 13.913-20.636v-30.698c0-10.93-7.925-20.257-18.721-21.971-90.98-14.625-137.105-44.678-137.105-89.333v-244.87zM1046.261 282.713h-44.522v89.043c0 26.958-8.704 31.722-77.446 42.385l-15.137 2.382c-10.819 1.781-18.721 11.086-18.721 22.016v44.522c0 9.060 5.498 17.208 13.891 20.636 24.109 9.773 30.631 16.607 30.631 46.147v44.522c0 39.335-27.425 66.783-66.783 66.783s-66.783-27.448-66.783-66.783v-44.522c0-29.54 6.522-36.374 30.631-46.147 8.392-3.428 13.891-11.576 13.891-20.636v-44.522c0-10.908-7.903-20.235-18.721-21.949-28.026-4.519-39.446-8.949-59.77-19.901l-21.126 39.179c18.566 10.040 32.657 16.228 55.096 21.148v11.798c-32.167 16.762-44.522 40.047-44.522 81.052v44.522c0 64.49 46.837 111.304 111.304 111.304s111.304-46.815 111.304-111.304v-44.522c0-41.005-12.355-64.267-44.522-81.052v-11.219c60.127-9.394 111.304-18.744 111.304-85.816v-89.066zM623.304-51.2h-155.826c-12.288 0-22.261 9.951-22.261 22.261v178.087h-178.087c-12.288 0-22.261 9.951-22.261 22.261v155.826c0 12.31 9.973 22.261 22.261 22.261h178.087v178.087c0 12.288 9.973 22.261 22.261 22.261h155.826c12.31 0 22.261-9.973 22.261-22.261v-178.087h178.087c12.31 0 22.261-9.951 22.261-22.261v-155.826c0-12.31-9.951-22.261-22.261-22.261h-178.087v-178.087c0-12.31-9.951-22.261-22.261-22.261zM489.739-6.678h111.304v178.087c0 12.31 9.951 22.261 22.261 22.261h178.087v111.304h-178.087c-12.31 0-22.261 9.951-22.261 22.261v178.087h-111.304v-178.087c0-12.31-9.973-22.261-22.261-22.261h-178.087v-111.304h178.087c12.288 0 22.261-9.951 22.261-22.261v-178.087z" />
<glyph unicode="&#xe91f;" glyph-name="ii02" horiz-adv-x="896" d="M874.922 802.084c-115.042 0-374.616 115.084-409.421 162.074-3.99 5.42-10.328 8.643-17.093 8.643v0c-6.743 0-13.124-3.201-17.136-8.621-35.957-48.462-307.311-162.095-409.933-162.095-11.779 0-21.34-9.56-21.34-21.34v-405.452c0-209.597 419.194-419.856 442.924-425.81 1.707-0.448 3.457-0.64 5.207-0.64s3.5 0.213 5.207 0.64c19.696 4.951 442.924 230.851 442.924 404.47v426.791c0 11.779-9.539 21.34-21.34 21.34zM853.582 353.953c0-129.275-347.024-334.199-405.516-360.873-54.587 24.37-405.388 215.359-405.388 382.213v385.286c111.030 11.182 332.726 99.677 405.644 160.708 71.061-60.306 285.225-150.508 405.26-160.9v-406.433zM362.772 674.324v-42.679h-149.377c-23.538 0-42.679-19.12-42.679-42.679v-298.754c0-23.538 19.142-42.679 42.679-42.679h469.47c23.559 0 42.679 19.142 42.679 42.679v298.754c0 23.559-19.12 42.679-42.679 42.679h-149.377v42.679c0 23.559-19.12 42.679-42.679 42.679h-85.358c-23.538 0-42.679-19.142-42.679-42.679zM213.396 290.212v152.855c42.359-15.194 109.621-21.425 170.716-23.687v-22.471c0-23.538 19.142-42.679 42.679-42.679h42.679c23.559 0 42.679 19.142 42.679 42.679v22.471c61.095 2.262 128.379 8.514 170.716 23.687l0.021-152.855h-469.492zM426.791 418.377c7.362-0.085 14.511-0.128 21.34-0.128s13.956 0.043 21.34 0.128v-21.468h-42.679v21.468zM682.866 482.268c0 0 0 0.021 0 0.043v-0.043zM682.866 488.371c-18.245-10.542-97.991-27.443-234.735-27.443-136.765 0-216.49 16.901-234.735 27.443v100.595h469.47v-100.595zM490.81 631.644h-85.358v42.679h85.358v-42.679z" />
<glyph unicode="&#xe920;" glyph-name="ii03" d="M1019.615 496.328c-17.252 23.263-59.637 42.808-111.95 30.675-47.304-11.019-74.084-44.188-100.508-94.208l-75.264-39.090c-14.893 13.535-36.218 22.573-64.067 22.573l-115.734-0.2c-3.74 1.113-13.913 8.882-20.658 14.047-18.744 14.425-40.025 30.675-63.955 30.675h-111.304c-36.842 0-79.16-27.225-104.782-51.044l-73.305-73.305-28.783 28.783c-8.348 8.348-23.129 8.348-31.477 0l-111.304-111.304c-8.704-8.704-8.704-22.773 0-31.477l267.13-267.13c4.363-4.341 10.062-6.522 15.738-6.522s11.398 2.182 15.738 6.522l111.304 111.304c4.185 4.163 6.522 9.817 6.522 15.738s-2.337 11.576-6.522 15.738l-27.091 27.091c3.027 1.002 6.456 1.692 11.353 1.692h311.652c41.472 0 193.269 161.658 194.694 163.283 17.519 19.679 93.473 133.432 115.178 184.142 3.139 7.279 2.137 15.672-2.605 22.016zM289.391 2.538l-235.631 235.654 79.805 79.827 235.654-235.654-79.827-79.827zM873.828 319.8c-25.511-28.605-138.418-137.817-163.662-148.391h-309.471c-20.881 0-34.593-6.3-44.143-13.446l-146.989 147.011 72.726 72.749c20.591 19.167 52.602 38.556 73.884 38.556h111.304c8.838 0 25.711-12.934 36.886-21.482 16.139-12.377 30.074-23.040 45.835-23.040h117.626c30.765 0 44.522-16.762 44.522-33.391s-13.757-33.391-44.522-33.391h-178.087v-44.522h178.087c58.457 0 89.043 39.224 89.043 77.913 0 5.721-0.868 11.398-2.226 17.007l79.271 41.183c4.096 2.137 7.435 5.476 9.572 9.594 25.956 50.532 45.39 70.812 74.262 77.535 24.042 5.61 44.7 0.824 56.787-6.122-25.734-50.666-86.728-142.091-100.708-157.763zM117.824 222.447l31.481 31.481 44.515-44.515-31.481-31.481-44.515 44.515zM333.913 794.713h44.522v-44.522h-44.522v44.522zM267.13 725.126v94.097c40.737 8.637 66.783 41.338 66.783 86.795h-44.522c0-13.401-4.341-44.522-44.522-44.522-12.288 0-22.261-9.973-22.261-22.261v-133.565c0-12.288 9.973-22.261 22.261-22.261 24.554 0 44.522-19.968 44.522-44.522h44.522c0 41.405-28.427 76.31-66.783 86.239zM690.087 794.713h44.522v-44.522h-44.522v44.522zM823.63 861.496c-40.203 0-44.522 31.121-44.522 44.522h-44.522c0-45.457 26.045-78.158 66.783-86.795v-94.119c-38.378-9.906-66.783-44.811-66.783-86.239h44.522c0 24.554 19.968 44.522 44.522 44.522 12.31 0 22.261 9.973 22.261 22.261v133.587c0 12.288-9.951 22.261-22.261 22.261zM534.216 883.712c-61.351 0-111.26-49.909-111.26-111.26s49.909-111.26 111.26-111.26 111.26 49.909 111.26 111.26-49.909 111.26-111.26 111.26zM534.216 705.714c-36.797 0-66.738 29.941-66.738 66.738s29.941 66.738 66.738 66.738c36.775 0 66.738-29.941 66.738-66.738s-29.963-66.738-66.738-66.738zM155.826 572.104h756.87c12.31 0 22.261 9.973 22.261 22.261v356.174c0 12.288-9.951 22.261-22.261 22.261h-756.87c-12.288 0-22.261-9.973-22.261-22.261v-356.174c0-12.288 9.973-22.261 22.261-22.261zM178.087 928.278h712.348v-311.652h-712.348v311.652z" />
<glyph unicode="&#xe921;" glyph-name="ii04" horiz-adv-x="1122" d="M536.381 753.371h48.762v-48.762h-48.762v48.762zM417.732 659.775l-24.381 42.228 42.228 24.381 24.381-42.228-42.228-24.381zM361.83 603.839l-24.381-42.228-42.228 24.381 24.381 42.228 42.228-24.381zM337.403 360.023l24.364-42.212-42.233-24.376-24.364 42.212 42.233 24.376zM393.366 219.626l24.364 42.212 42.233-24.376-24.364-42.212-42.233 24.376zM536.381 216.99h48.762v-48.762h-48.762v48.762zM685.932 195.234l-24.376 42.233 42.233 24.376 24.376-42.233-42.233-24.376zM784.093 359.988l42.233-24.376-24.364-42.212-42.233 24.376 24.364 42.212zM826.326 585.952l-42.233-24.376-24.376 42.233 42.233 24.376 24.376-42.233zM728.156 702.005l-24.381-42.228-42.228 24.381 24.381 42.228 42.228-24.381zM689.81 599.942l-129.048-129.048-80.286 80.286-34.475-34.475 114.761-114.761 163.523 163.523zM264.899 448.658c-4.364 7.509-12.41 12.142-21.090 12.142h-24.381c0 188.221 153.112 341.333 341.333 341.333 117.858 0 225.865-59.563 288.817-159.33l41.228 26.014c-71.973 114.005-195.389 182.077-330.045 182.077-215.089 0-390.095-175.006-390.095-390.095v-24.381c0-13.483 10.923-24.381 24.381-24.381h6.754l-57.807-101.132-72.241 101.132h1.39c13.458 0 24.381 10.898 24.381 24.381v24.381c0 255.439 207.799 463.238 463.238 463.238 83.31 0 165.010-22.357 236.227-64.707l24.893 41.935c-78.75 46.787-169.082 71.534-261.12 71.534-282.331 0-512-229.669-512-512h-24.381c-9.143 0-17.506-5.096-21.675-13.214-4.169-8.143-3.462-17.871 1.829-25.332l121.905-170.667c4.608-6.461 11.995-10.216 19.846-10.216 0.414 0 0.829 0 1.219 0.024 8.314 0.463 15.823 5.047 19.944 12.264l97.524 170.667c4.315 7.509 4.291 16.798-0.073 24.332zM1116.965 499.346l-121.905 170.667c-4.803 6.754-12.288 10.557-21.041 10.167-8.29-0.414-15.799-5.047-19.919-12.239l-97.524-170.667c-4.315-7.558-4.291-16.823 0.073-24.332 4.34-7.509 12.41-12.142 21.065-12.142h24.381c0-188.245-153.088-341.333-341.333-341.333-117.858 0-225.816 59.563-288.817 159.33l-41.228-26.039c71.973-114.005 195.365-182.053 330.045-182.053 215.089 0 390.095 175.006 390.095 390.095v24.381c0 13.458-10.898 24.381-24.381 24.381h-6.705l57.758 101.132 72.241-101.132h-1.39c-13.483 0-24.381-10.923-24.381-24.381v-24.381c0-255.439-207.799-463.238-463.238-463.238-98.523 0-192.585 30.525-272.067 88.235l-28.672-39.424c87.869-63.829 191.854-97.573 300.739-97.573 282.307 0 512 229.693 512 512h24.381c9.143 0 17.506 5.096 21.723 13.214 4.145 8.119 3.413 17.896-1.902 25.332z" />
<glyph unicode="&#xe922;" glyph-name="ii05" horiz-adv-x="1119" d="M47.628 687.033h833.488v-142.884h47.628v333.395c0 26.267-21.337 47.628-47.628 47.628h-119.070v-47.628h119.070v-142.884h-833.488v142.884h119.070v47.628h-119.070c-26.267 0-47.628-21.361-47.628-47.628v-642.977c0-26.291 21.361-47.628 47.628-47.628h476.279v47.628h-476.279v452.465zM833.488 520.335c-157.577 0-285.767-128.191-285.767-285.767s128.191-285.767 285.767-285.767 285.767 128.191 285.767 285.767-128.191 285.767-285.767 285.767zM833.488-3.572c-131.31 0-238.14 106.829-238.14 238.14s106.829 238.14 238.14 238.14 238.14-106.829 238.14-238.14-106.829-238.14-238.14-238.14zM829.678 243.379l-77.157 57.868-28.577-38.102 95.256-71.442c4.263-3.239 9.287-4.763 14.265-4.763 6.835 0 13.598 2.929 18.361 8.549l119.070 142.884-36.602 30.506-104.615-125.5zM690.605 972.8h47.628v-142.884h-47.628v142.884zM261.953 925.172h404.837v-47.628h-404.837v47.628zM190.512 972.8h47.628v-142.884h-47.628v142.884zM285.767 615.591h71.442v-47.628h-71.442v47.628zM404.837 615.591h71.442v-47.628h-71.442v47.628zM523.907 615.591h71.442v-47.628h-71.442v47.628zM642.977 615.591h71.442v-47.628h-71.442v47.628zM166.698 496.521h71.442v-47.628h-71.442v47.628zM285.767 496.521h71.442v-47.628h-71.442v47.628zM404.837 496.521h71.442v-47.628h-71.442v47.628zM523.907 496.521h71.442v-47.628h-71.442v47.628zM166.698 377.451h71.442v-47.628h-71.442v47.628zM285.767 377.451h71.442v-47.628h-71.442v47.628zM404.837 377.451h71.442v-47.628h-71.442v47.628z" />
<glyph unicode="&#xe923;" glyph-name="securities_name" horiz-adv-x="1076" d="M47.828 299.906c0 176.773 82.456 318.44 220.44 380.281h182.847c126.266-56.676 205.948-179.164 218.574-337.236l47.637 3.826c-13.488 169.12-101.826 306.291-236.606 371.72v69.446l35.393 107.565c6.122 18.557 2.965 39.889-8.179 55.576-9.661 13.488-24.201 21.379-40.845 21.714-13.344 0-25.827-2.583-35.823-7.366-20.040 9.613-51.607 9.613-71.647 0-20.040 9.613-51.75 9.613-71.694 0-9.948 4.783-22.144 7.366-36.828 7.318-15.64-0.287-30.18-8.179-39.793-21.714-11.144-15.64-14.301-36.971-8.179-55.576l35.345-107.422v-69.686c-149.272-72.077-238.471-226.801-238.471-418.448 0-224.218 16.166-351.106 347.663-351.106v47.828c-299.834 0-299.834 101.348-299.834 303.278zM432.892 728.016h-146.593v39.889h146.593v-39.889zM252.102 924.972c8.083 0 13.966-1.865 16.022-3.157 12.148-7.557 27.31-7.605 39.65 0.048 4.209 2.535 28.745 1.961 31.949 0 12.292-7.652 27.501-7.605 39.65-0.048 3.444 2.057 27.884 2.631 32.045 0 12.244-7.557 27.406-7.557 39.602 0 1.722 1.1 7.27 3.109 16.022 3.109h0.239c1.817-0.622 5.692-7.318 3.3-14.54l-31.088-94.652h-159.842l-31.088 94.652c-2.344 7.174 1.53 13.918 3.539 14.588zM459.198 366.005c0 51.32-40.941 87.191-99.578 87.191-32.858 0-51.75 14.348-51.75 39.41 0 21.284 23.723 39.315 51.75 39.315s51.75-18.031 51.75-39.315h47.828c0 40.797-32.332 74.851-75.664 84.321v34.867h-47.828v-34.867c-43.332-9.422-75.664-43.476-75.664-84.321 0-43.38 30.801-87.238 99.578-87.238 31.901 0 51.75-15.066 51.75-39.363 0-21.331-23.723-39.363-51.75-39.363s-51.75 18.031-51.75 39.363h-47.828c0-40.845 32.332-74.947 75.712-84.417v-34.819h47.828v34.915c43.284 9.422 75.616 43.524 75.616 84.321zM645.68 283.597h191.312v-47.828h-191.312v47.828zM884.82 283.597h191.312v-47.828h-191.312v47.828zM406.539-3.372h191.312v-47.828h-191.312v47.828zM645.68-3.372h191.312v-47.828h-191.312v47.828zM884.82-3.372h191.312v-47.828h-191.312v47.828zM406.539 92.284h191.312v-47.828h-191.312v47.828zM645.68 92.284h191.312v-47.828h-191.312v47.828zM884.82 92.284h191.312v-47.828h-191.312v47.828zM406.539 187.941h191.312v-47.828h-191.312v47.828zM645.68 187.941h191.312v-47.828h-191.312v47.828zM884.82 187.941h191.312v-47.828h-191.312v47.828zM884.82 379.253h191.312v-47.828h-191.312v47.828zM884.82 474.909h191.312v-47.828h-191.312v47.828z" />
<glyph unicode="&#xe924;" glyph-name="stock_code" horiz-adv-x="1068" d="M144.041 697.979h143.205v-52.208h-143.205v52.208zM144.041 593.564h89.745v-52.208h-89.745v52.208zM144.041 384.681h89.745v-52.208h-89.745v52.208zM144.041 280.266h129.37v-52.208h-129.37v52.208zM144.041 489.149h89.745v-52.26h-89.745v52.26zM673.948 21.421c0-8.823-7.152-15.976-15.976-15.976h-589.789c-8.823 0.052-15.976 7.152-15.976 15.976v763.014h136.157v136.157h469.66c8.823 0 15.976-7.1 15.976-15.923v-112.403h52.208v112.403c-0.052 37.537-30.646 68.131-68.183 68.131h-530.325l-127.7-127.595v-823.732c0-37.589 30.594-68.183 68.183-68.183h589.842c37.589 0 68.183 30.594 68.183 68.183v79.095h-52.208v-79.147zM136.105 907.384v-70.741h-70.846l70.846 70.741zM1067.854-13.088l-42.236 42.236 40.67 40.67-210.71 210.762-42.132-42.132-22.136 22.188c44.168 52.782 69.436 117.937 69.436 187.582 0 78.468-30.594 152.342-86.090 207.838-114.596 114.596-301.081 114.596-415.677 0-55.549-55.497-86.090-129.37-86.090-207.838 0-78.52 30.541-152.29 86.090-207.838 55.497-55.497 129.37-86.090 207.838-86.090 69.645 0 134.8 25.216 187.582 69.436l22.136-22.188-42.079-42.079 210.762-210.71 43.437 43.437 42.236-42.236 36.963 36.963zM395.942 277.342c-45.682 45.629-70.794 106.347-70.794 170.928 0 64.529 25.112 125.246 70.794 170.928 94.339 94.235 247.621 94.235 341.855 0 45.682-45.682 70.794-106.347 70.794-170.928s-25.112-125.298-70.794-170.928c-45.629-45.682-106.347-70.794-170.875-70.794-64.633-0.052-125.298 25.112-170.98 70.794zM808.33 159.51l47.248 47.248 136.888-136.941-47.196-47.196-136.941 136.888zM566.87 528.148c20.204 0 37.224-12.373 37.224-26.939h52.208c0 35.553-26.835 65.364-63.38 75.336v49.91h-52.208v-49.963c-36.545-9.972-63.328-39.782-63.328-75.283 0-39.417 27.67-79.147 89.484-79.147 23.285 0 37.224-10.024 37.224-26.835 0-14.618-17.020-26.939-37.224-26.939s-37.276 12.321-37.276 26.939h-52.208c0-35.553 26.783-65.312 63.328-75.283v-49.963h52.208v49.91c36.545 9.919 63.38 39.73 63.38 75.336 0 46.517-36.754 79.042-89.432 79.042-13.939 0-37.276 3.55-37.276 26.939 0.052 14.566 17.124 26.939 37.276 26.939z" />
<glyph unicode="&#xe925;" glyph-name="menu1" d="M718.629 643.657h-438.857c-10.971 0-18.286-7.314-18.286-18.286s7.314-18.286 18.286-18.286h438.857c10.971 0 18.286 7.314 18.286 18.286s-9.143 18.286-18.286 18.286zM718.629 515.657h-438.857c-10.971 0-18.286-7.314-18.286-18.286s7.314-18.286 18.286-18.286h438.857c10.971 0 18.286 7.314 18.286 18.286s-9.143 18.286-18.286 18.286zM718.629 387.657h-438.857c-10.971 0-18.286-7.314-18.286-18.286s7.314-18.286 18.286-18.286h438.857c10.971 0 18.286 7.314 18.286 18.286s-9.143 18.286-18.286 18.286z" />
<glyph unicode="&#xe926;" glyph-name="cross" d="M1024 912.558l-59.364 59.233-452.636-451.773-452.638 451.773-59.362-59.233 452.638-451.776-452.638-451.741 59.362-59.231 452.638 451.741 452.636-451.741 59.364 59.231-452.67 451.741z" />
<glyph unicode="&#xe927;" glyph-name="linkedin" d="M1024 372.879v-378.552h-219.505v353.219c0 88.719-31.724 149.279-111.165 149.279-60.641 0-96.727-40.817-112.599-80.282-5.796-14.111-7.291-33.772-7.291-53.514v-368.701h-219.566c0 0 2.97 598.221 0 660.193h219.525v-93.553c-0.43-0.717-1.024-1.454-1.434-2.13h1.434v2.13c29.184 44.892 81.285 109.097 197.837 109.097 144.445 0 252.764-94.372 252.764-297.185v0zM124.232 972.8c-75.1 0-124.232-49.275-124.232-114.053 0-63.365 47.718-114.135 121.324-114.135h1.454c76.554 0 124.17 50.729 124.17 114.135-1.413 64.778-47.616 114.053-122.716 114.053v0zM13.046-5.673h219.443v660.193h-219.443v-660.193z" />
<glyph unicode="&#xe928;" glyph-name="setting" d="M957.071 566.026l-69.714 11.837c-7.311 23.491-16.609 46.1-28.078 67.666l41.144 57.508c17.428 24.474 14.766 57.917-6.615 79.073l-61.87 61.85c-11.633 11.633-26.972 18.084-43.397 18.084-12.861 0-25.108-3.953-35.492-11.407l-57.754-41.103c-22.364 11.837-45.855 21.586-70.124 28.856l-11.633 68.956c-4.977 29.655-30.515 51.282-60.641 51.282h-87.368c-30.106 0-55.644-21.627-60.6-51.282l-12.063-70.615c-23.265-7.291-45.855-16.814-67.441-28.447l-57.098 41.124c-10.342 7.455-22.815 11.407-35.656 11.407-16.425 0-32.010-6.451-43.418-18.043l-62.075-61.911c-21.176-21.156-24.084-54.6-6.636-79.073l41.513-58.327c-11.428-21.811-20.562-44.401-27.607-67.891l-68.936-11.633c-29.676-4.977-51.241-30.474-51.241-60.6v-87.347c0-30.147 21.565-55.624 51.241-60.662l70.574-12.063c7.25-23.224 16.794-45.834 28.447-67.461l-40.899-56.832c-17.428-24.494-14.725-57.958 6.636-79.073l61.87-61.87c11.633-11.612 27.013-18.043 43.397-18.043 12.861 0 25.129 3.871 35.512 11.428l58.327 41.513c20.972-11.018 42.967-19.927 65.577-26.993l11.633-69.714c4.997-29.716 30.536-51.323 60.621-51.323h87.593c30.085 0 55.665 21.606 60.621 51.323l11.837 69.714c23.409 7.291 46.060 16.63 67.666 27.976l57.487-41.083c10.404-7.475 22.856-11.469 35.717-11.469 16.425 0 31.785 6.451 43.418 18.104l61.809 61.87c21.156 21.156 24.105 54.62 6.636 79.053l-41.083 57.733c11.428 21.77 20.992 44.38 27.996 67.686l69.775 11.612c29.655 4.997 51.241 30.474 51.241 60.6v87.368c0.451 30.126-21.176 55.706-50.852 60.641zM952.279 418.038c0-2.703-1.823-4.977-4.567-5.366l-87.142-14.561c-11.018-1.884-19.763-9.994-22.446-20.582-7.905-30.474-19.988-59.802-36.106-86.958-5.632-9.544-5.243-21.443 1.229-30.515l51.302-72.253c1.454-2.068 1.229-5.161-0.655-7.004l-61.87-61.87c-1.372-1.454-2.908-1.679-3.891-1.679-1.27 0-2.273 0.41-3.113 1.065l-72.028 51.241c-8.95 6.451-20.951 6.902-30.536 1.249-27.218-16.22-56.463-28.201-86.958-36.086-10.793-2.724-18.903-11.674-20.521-22.426l-14.766-87.183c-0.43-2.765-2.683-4.588-5.407-4.588h-87.388c-2.703 0-4.997 1.823-5.386 4.588l-14.52 87.183c-1.884 10.957-9.994 19.702-20.582 22.426-29.676 7.66-58.327 19.497-85.094 34.836-4.403 2.54-9.359 3.748-14.131 3.748-5.612 0-11.407-1.597-16.2-5.181l-72.684-51.651c-1.004-0.635-2.028-1.085-3.092-1.085-0.84 0-2.478 0.266-3.912 1.741l-61.87 61.788c-1.884 1.925-2.089 4.813-0.635 7.107l51.057 71.619c6.431 9.093 6.84 21.115 1.249 30.7-16.2 26.993-28.631 56.259-36.516 86.774-2.908 10.588-11.612 18.657-22.426 20.521l-87.818 14.95c-2.724 0.43-4.588 2.703-4.588 5.448v87.347c0 2.703 1.864 4.977 4.588 5.427l86.569 14.5c10.998 1.884 19.907 9.953 22.61 20.787 7.7 30.495 19.538 59.965 35.512 87.142 5.591 9.564 4.956 21.402-1.475 30.331l-51.671 72.643c-1.434 2.028-1.249 5.14 0.594 7.066l61.87 61.85c1.495 1.434 2.929 1.618 3.932 1.618 1.27 0 2.273-0.369 3.092-1.024l71.639-51.057c9.114-6.39 21.197-6.84 30.72-1.249 26.993 16.22 56.279 28.652 86.815 36.536 10.568 2.929 18.637 11.653 20.541 22.446l14.95 87.818c0.389 2.683 2.662 4.567 5.366 4.567h87.388c2.724 0 4.977-1.884 5.427-4.567l14.52-86.589c1.884-10.977 9.953-19.948 20.767-22.61 31.314-7.905 61.174-20.111 89.088-36.557 9.503-5.591 21.361-5.14 30.495 1.249l71.598 51.487c1.004 0.635 2.089 1.065 3.113 1.065 0.778 0 2.458-0.225 3.891-1.679l61.87-61.829c1.905-1.905 2.089-4.792 0.614-7.107l-51.261-72.049c-6.451-8.868-6.861-20.91-1.29-30.495 16.261-27.197 28.262-56.484 36.127-86.979 2.724-10.793 11.633-18.903 22.426-20.562l87.204-14.705c2.744-0.451 4.567-2.724 4.567-5.427v-87.368h-0.184zM554.783-49.377h-87.593c-37.11 0-68.547 26.563-74.67 63.16l-10.24 61.215c-18.022 6.021-35.328 13.148-51.712 21.258l-51.282-36.495c-29.061-20.89-71.619-17.428-97.219 8.192l-61.85 61.809c-26.317 26.092-29.778 67.072-8.192 97.464l35.82 49.828c-8.868 17.326-16.445 35.369-22.61 53.617l-62.075 10.629c-36.598 6.124-63.16 37.581-63.16 74.65v87.409c0 37.089 26.563 68.506 63.16 74.67l60.252 10.179c6.124 18.698 13.455 36.782 21.996 54.067l-36.495 51.302c-21.504 30.167-18.084 71.188 8.172 97.382l62.116 61.87c25.027 25.457 68.383 29.082 97.485 8.131l49.93-35.942c17.347 8.847 35.328 16.404 53.678 22.61l10.609 62.034c6.103 36.598 37.519 63.14 74.629 63.14h87.368c37.13 0 68.547-26.542 74.67-63.16l10.179-60.252c19.108-6.226 37.97-14.008 56.381-23.183l50.647 36.045c29 20.869 71.598 17.428 97.219-8.192l61.829-61.85c26.317-26.071 29.819-67.052 8.233-97.423l-36.127-50.483c8.704-17.265 16.159-35.287 22.323-53.842l61.215-10.404c36.844-6.185 63.222-37.683 62.73-74.854v-87.163c0-37.151-26.563-68.526-63.16-74.67l-61.153-10.199c-5.898-17.859-13.394-35.901-22.323-53.821l36.086-50.688c21.463-30.167 18.084-71.209-8.172-97.444l-61.87-61.85c-25.661-25.702-68.465-28.938-97.464-8.192l-50.401 36.147c-17.265-8.745-35.369-16.179-53.883-22.323l-10.363-61.256c-6.185-36.557-37.601-63.119-74.711-63.119zM328.233 129.516l7.7-4.035c19.62-10.26 40.919-19.026 63.283-25.989l8.335-2.621 13.066-78.418c3.809-22.794 23.45-39.322 46.551-39.322h87.593c23.183 0 42.742 16.527 46.551 39.383l13.332 78.356 8.335 2.621c22.651 7.004 44.626 16.077 65.229 26.993l7.782 4.137 64.655-46.244c17.981-12.923 44.646-10.957 60.723 5.12l61.87 61.85c16.364 16.343 18.514 41.964 5.12 60.764l-46.182 64.819 4.055 7.803c11.407 21.811 20.541 43.704 26.993 65.188l2.601 8.499 78.397 13.107c22.876 3.85 39.424 23.347 39.424 46.51v87.368c0.328 23.204-16.097 42.701-38.953 46.572h-0.061l-78.356 13.312-2.601 8.356c-6.984 22.61-16.077 44.564-26.993 65.249l-4.116 7.741 46.244 64.696c13.414 18.924 11.305 44.421-5.12 60.662l-61.87 61.911c-15.995 16.015-42.435 18.125-60.477 5.14l-64.922-46.223-7.741 4.096c-21.934 11.592-44.687 20.951-67.604 27.832l-8.499 2.54-13.087 77.64c-3.85 22.835-23.429 39.404-46.592 39.404h-87.368c-23.142 0-42.721-16.568-46.572-39.404l-13.517-79.196-8.315-2.642c-22.282-6.943-44.155-16.159-64.963-27.361l-7.823-4.239-64.348 46.285c-17.981 13.066-44.995 10.854-60.539-5.059l-62.239-61.952c-16.343-16.343-18.493-41.841-5.1-60.682l46.612-65.454-4.055-7.803c-10.772-20.5-19.722-42.516-26.583-65.352l-2.58-8.479-77.619-13.066c-22.856-3.85-39.404-23.47-39.404-46.572v-87.409c0-23.142 16.568-42.721 39.383-46.551l79.196-13.496 2.621-8.376c6.943-22.221 16.179-44.093 27.361-64.86l4.219-7.926-46.1-64.123c-13.414-18.842-11.305-44.319 5.12-60.621l61.87-61.87c15.974-15.995 42.414-18.084 60.498-5.181l65.577 46.572zM554.783 6.226h-87.347c-9.81 0-18.022 7.045-19.497 16.65l-14.5 86.999c-0.901 5.345-4.833 9.626-10.015 10.957-30.72 7.987-60.498 20.173-88.719 36.352-4.485 2.58-10.895 2.253-14.746-0.492l-72.827-51.937c-11.203-6.717-19.087-4.055-25.395 2.13l-61.87 61.911c-6.595 6.595-7.68 16.753-2.601 24.781l51.507 72.192c3.113 4.465 3.4 10.486 0.553 15.278-17.080 28.426-29.88 58.86-38.031 90.44-1.413 5.12-5.796 9.114-11.059 10.015l-87.777 14.971c-9.339 1.372-16.404 9.564-16.404 19.415v87.409c0 9.769 7.004 17.981 16.65 19.456l86.344 14.52c5.468 0.922 9.892 4.915 11.203 10.199 8.172 32.44 20.623 63.017 37.007 90.931 2.703 4.588 2.417 10.383-0.696 14.787l-51.753 72.663c-5.468 7.926-4.485 18.76 2.171 25.395l61.87 61.87c4.137 4.178 16.609 8.602 25.58 2.048l71.434-50.975c4.403-3.092 10.424-3.338 15.217-0.553 28.426 17.060 58.88 29.88 90.419 38.052 5.14 1.393 9.175 5.796 10.097 11.039l14.93 87.777c1.434 9.421 9.646 16.425 19.415 16.425h87.409c9.789 0 17.981-6.984 19.476-16.65l14.479-86.364c0.942-5.427 4.956-9.851 10.199-11.162 32.604-8.212 63.816-21.012 92.774-38.052 4.751-2.806 10.527-2.56 15.073 0.573l71.516 51.466c11.080 6.697 19.21 4.076 25.416-2.13l61.87-61.891c6.636-6.595 7.7-16.773 2.56-24.781l-51.671-72.581c-3.154-4.424-3.338-10.281-0.532-15.073 16.65-27.914 29.327-58.409 37.622-90.604 1.331-5.284 5.632-9.236 10.793-10.035l87.429-14.746c9.4-1.495 16.425-9.667 16.425-19.476v-101.622h-6.205c-2.826-2.724-6.492-4.608-10.629-5.263l-87.081-14.5c-5.284-0.86-9.646-4.833-10.895-9.953-8.356-32.215-21.053-62.771-37.745-90.849-2.744-4.628-2.519-10.424 0.676-14.95l51.241-72.212c5.509-7.803 4.588-18.719-2.212-25.395l-61.768-61.788c-4.198-4.239-16.814-8.643-25.661-1.966l-71.803 51.098c-4.28 3.113-10.342 3.236-15.073 0.471-27.935-16.65-58.409-29.307-90.563-37.642-5.243-1.249-9.257-5.53-10.035-10.772l-14.807-87.368c-1.372-9.421-9.564-16.486-19.436-16.486zM546.12 27.566c0-0.143 0-0.225-0.061-0.369l0.061 0.369zM476.017 27.607l0.041-0.184c0 0.041 0 0.143-0.041 0.184zM474.849 34.714h72.52l13.517 79.913c2.519 16.404 14.746 29.757 31.15 33.853 29.409 7.578 57.405 19.21 83.128 34.57 14.582 8.499 32.727 7.741 46.141-2.007l65.925-46.879 51.384 51.384-46.961 66.273c-9.585 13.537-10.322 31.539-1.905 45.937 15.36 25.743 26.931 53.76 34.611 83.292 4.055 16.036 17.367 28.262 33.833 31.068l79.892 13.271 0.184 72.561-79.913 13.496c-16.323 2.54-29.778 14.725-33.833 31.171-7.619 29.471-19.231 57.426-34.57 83.149-8.52 14.541-7.782 32.625 1.946 46.121l46.92 65.884-51.425 51.425-65.495-47.104c-13.64-9.605-31.662-10.342-46.019-2.007-26.706 15.729-55.357 27.505-85.32 35.041-16.241 4.035-28.508 17.388-31.355 34.017l-13.292 79.278h-72.561l-13.681-80.527c-2.785-16.138-14.868-29.409-30.822-33.731-29.061-7.537-56.996-19.313-83.21-35.041-14.52-8.54-32.604-7.762-46.244 1.823l-65.618 46.756-51.446-51.425 47.391-66.54c9.687-13.496 10.547-31.519 2.13-45.814-15.053-25.539-26.46-53.637-33.976-83.436-4.055-16.2-17.449-28.488-34.079-31.314l-79.258-13.353v-72.54l80.507-13.701c16.159-2.724 29.43-14.848 33.772-30.7 7.516-29.143 19.292-57.037 35-83.272 8.54-14.52 7.782-32.604-1.802-46.244l-46.797-65.618 51.446-51.446 66.58 47.391c12.268 9.114 31.293 10.383 45.588 2.212 26.051-14.93 53.473-26.092 81.633-33.423 16.056-4.096 28.242-17.428 31.068-33.853l13.312-79.913zM782.008 129.004c-0.061-0.061-0.123-0.061-0.123-0.143l0.123 0.143zM793.027 130.068l0.266-0.184c-0.123 0.041-0.205 0.102-0.266 0.184zM843.817 190.812c0 0 0 0-0.061-0.082l0.061 0.082zM76.902 424.653v0zM77.455 494.694l-0.246-0.041c0.102 0 0.164 0.041 0.246 0.041zM945.562 496.783c0.041-0.020 0.164-0.041 0.225-0.041l-0.225 0.041zM843.981 732.611c0.082 0 0.082-0.020 0.082-0.020l-0.082 0.020zM227.697 792.105c0 0 0.061-0.061 0.102-0.082l-0.102 0.082zM239.043 793.108l-0.082-0.082c0.041 0.041 0.061 0.061 0.082 0.082zM544.686 895.795c0-0.061 0.041-0.143 0.041-0.205l-0.041 0.205zM474.624 895.98v-0.266c0 0.082 0 0.184 0 0.266zM511.201 676.25c-118.333 0-214.446-96.072-214.446-214.405 0-118.354 96.113-214.446 214.446-214.446s214.446 96.092 214.446 214.446c0 118.333-96.113 214.405-214.446 214.405zM511.201 303.432c-87.388 0-158.392 71.025-158.392 158.413s71.004 158.372 158.392 158.372c87.409 0 158.392-70.984 158.392-158.372s-70.984-158.413-158.392-158.413zM511.201 233.144c-126.075 0-228.7 102.666-228.7 228.68 0 126.095 102.625 228.721 228.7 228.721s228.68-102.625 228.68-228.721c0-126.034-102.605-228.68-228.68-228.68zM511.201 662.036c-110.387 0-200.192-89.866-200.192-200.233 0-110.387 89.805-200.151 200.192-200.151s200.172 89.764 200.172 200.151c0 110.367-89.784 200.233-200.172 200.233zM511.201 289.198c-95.191 0-172.646 77.455-172.646 172.605 0 95.171 77.455 172.646 172.646 172.646 95.171 0 172.646-77.476 172.646-172.646 0-95.15-77.476-172.605-172.646-172.605zM511.201 605.962c-79.503 0-144.159-64.655-144.159-144.159 0-79.462 64.655-144.118 144.159-144.118s144.138 64.635 144.138 144.118c0 79.503-64.635 144.159-144.138 144.159z" />
<glyph unicode="&#xe929;" glyph-name="info" d="M512 972.8c-282.771 0-512-229.229-512-512 0-282.767 229.229-512 512-512 282.767 0 512 229.233 512 512 0 282.771-229.233 512-512 512zM441.811 110.334c-27.267 0-38.785 27.238-18.87 111.079 16.769 69.149 46.117 181.244 65.954 266.146 4.182 19.862 3.146 29.299-3.146 29.299-10.453 0-41.906-20.951-69.149-47.133l-13.623 27.242c49.238 53.42 120.517 98.501 154.051 98.501 26.182 0 27.222-35.512 8.348-113.16-19.862-75.461-45.052-181.268-63.902-255.648-7.332-28.279-7.332-39.85 0-39.85 10.502 0 38.785 14.66 75.416 53.449l14.737-26.231c-52.384-70.214-118.387-103.694-149.815-103.694zM565.424 702.214c-26.182 0-46.121 18.85-46.121 47.133 0 27.267 21.008 61.866 58.7 61.866 28.258 0.102 42.971-21.918 42.971-48.12 0-32.494-23.032-60.879-55.55-60.879z" />
</font>
</defs>
</svg>
